<svg width="32" height="32" viewBox="0 0 32 32" fill="none" xmlns="http://www.w3.org/2000/svg">
<path d="M9.28033 2.6665C9.83766 2.6665 10.2883 3.07984 10.2883 3.58917V5.45317C11.1817 5.43717 12.1843 5.43717 13.3123 5.43717H18.6883C19.8163 5.43717 20.8177 5.43717 21.7123 5.45317V3.58917C21.7123 3.07984 22.163 2.6665 22.7203 2.6665C23.2777 2.6665 23.7283 3.07984 23.7283 3.58917V5.53317C25.6617 5.6745 26.9323 6.02384 27.8657 6.87717C28.799 7.73184 29.179 8.8945 29.3337 10.6665V11.9998H2.66699V10.6665C2.82166 8.8945 3.20166 7.73317 4.13499 6.87717C5.06833 6.02384 6.33766 5.6745 8.27233 5.53317V3.58917C8.27233 3.07984 8.72433 2.6665 9.28033 2.6665Z" fill="#505050"/>
<path opacity="0.5" d="M29.3334 18.6667V16C29.3334 14.8813 29.316 12.8867 29.2987 12H2.6747C2.65736 12.8867 2.6747 14.8813 2.6747 16V18.6667C2.6747 23.6947 2.6747 26.2093 4.2347 27.7707C5.7987 29.3333 8.31203 29.3333 13.3387 29.3333H18.672C23.6987 29.3333 26.2107 29.3333 27.7734 27.7707C29.3334 26.2093 29.3334 23.6947 29.3334 18.6667Z" fill="#505050"/>
<path fill-rule="evenodd" clip-rule="evenodd" d="M18.6663 16.3335C18.0475 16.3335 17.454 16.5793 17.0164 17.0169C16.5788 17.4545 16.333 18.048 16.333 18.6668V21.3335C16.333 21.9523 16.5788 22.5458 17.0164 22.9834C17.454 23.421 18.0475 23.6668 18.6663 23.6668C19.2852 23.6668 19.8787 23.421 20.3163 22.9834C20.7538 22.5458 20.9997 21.9523 20.9997 21.3335V18.6668C20.9997 18.048 20.7538 17.4545 20.3163 17.0169C19.8787 16.5793 19.2852 16.3335 18.6663 16.3335ZM18.6663 18.3335C18.5779 18.3335 18.4932 18.3686 18.4306 18.4311C18.3681 18.4936 18.333 18.5784 18.333 18.6668V21.3335C18.333 21.4219 18.3681 21.5067 18.4306 21.5692C18.4932 21.6317 18.5779 21.6668 18.6663 21.6668C18.7547 21.6668 18.8395 21.6317 18.902 21.5692C18.9646 21.5067 18.9997 21.4219 18.9997 21.3335V18.6668C18.9997 18.5784 18.9646 18.4936 18.902 18.4311C18.8395 18.3686 18.7547 18.3335 18.6663 18.3335Z" fill="#505050"/>
<path d="M15.0004 17.3331C15.0003 17.1355 14.9415 16.9423 14.8316 16.778C14.7217 16.6137 14.5656 16.4857 14.383 16.4101C14.2004 16.3344 13.9995 16.3146 13.8056 16.3532C13.6117 16.3917 13.4336 16.4868 13.2938 16.6264L11.2938 18.6264C11.1171 18.816 11.021 19.0667 11.0255 19.3258C11.0301 19.5849 11.1351 19.8321 11.3183 20.0153C11.5015 20.1985 11.7487 20.3034 12.0078 20.308C12.2668 20.3126 12.5175 20.2164 12.7071 20.0398L13.0004 19.7464V22.6664C13.0004 22.9317 13.1058 23.186 13.2933 23.3735C13.4809 23.5611 13.7352 23.6664 14.0004 23.6664C14.2657 23.6664 14.52 23.5611 14.7076 23.3735C14.8951 23.186 15.0004 22.9317 15.0004 22.6664V17.3331Z" fill="#505050"/>
</svg>
