<svg width="45" height="45" viewBox="0 0 45 45" fill="none" xmlns="http://www.w3.org/2000/svg">
<path fill-rule="evenodd" clip-rule="evenodd" d="M15 24.1163V25.2731C15 26.8706 13.9181 28.2806 12.3375 28.7419L8.5875 29.8425C6.18 30.5475 3.75 28.8056 3.75 26.3719V22.7663C3.75 21.8475 3.98438 20.9456 4.575 20.2294C5.95125 18.5719 9.15 15.5288 15 14.0213V24.1163ZM30 24.1163V24.8438C30 26.6381 31.3556 28.1625 33.1875 28.4306L36.9375 28.98C39.2063 29.3119 41.25 27.6131 41.25 25.3931V21.4125C41.25 20.3119 40.905 19.2281 40.0688 18.4819C38.5369 17.1131 35.3962 14.9569 30 13.8431V24.1163Z" fill="#1C2CBC"/>
<path opacity="0.5" d="M22.5 21.3675C30 21.3675 30 24.1163 30 24.1163V13.8412C27.8663 13.4006 25.38 13.125 22.5 13.125C19.62 13.125 17.1337 13.47 15 14.0213V24.1163C15 24.1163 15 21.3675 22.5 21.3675Z" fill="#1C2CBC"/>
</svg>
