<svg width="363" height="268" viewBox="0 0 363 268" fill="none" xmlns="http://www.w3.org/2000/svg">
<path d="M326.451 249.239H302.419V249.42H326.451V249.239Z" fill="#EBEBEB"/>
<path d="M240.336 251.213H234.03V251.394H240.336V251.213Z" fill="#EBEBEB"/>
<path d="M301.693 242.505H287.769V242.687H301.693V242.505Z" fill="#EBEBEB"/>
<path d="M69.4044 243.724H38.0654V243.906H69.4044V243.724Z" fill="#EBEBEB"/>
<path d="M80.4626 243.724H75.8695V243.906H80.4626V243.724Z" fill="#EBEBEB"/>
<path d="M163.371 246.787H95.3956V246.968H163.371V246.787Z" fill="#EBEBEB"/>
<path d="M171.969 205.202H31.8687C30.7698 205.202 29.716 204.765 28.939 203.988C28.162 203.211 27.7255 202.158 27.7255 201.059V4.10694C27.735 3.01439 28.1758 1.96984 28.9517 1.20067C29.7277 0.431492 30.7761 -4.18864e-05 31.8687 3.0494e-09H171.969C173.068 3.04941e-09 174.122 0.436517 174.899 1.21352C175.676 1.99053 176.112 3.04437 176.112 4.14322V201.059C176.112 202.158 175.676 203.211 174.899 203.988C174.122 204.765 173.068 205.202 171.969 205.202ZM31.8687 0.145122C30.8185 0.14704 29.8119 0.56506 29.0694 1.30763C28.3268 2.0502 27.9088 3.05679 27.9069 4.10694V201.059C27.9088 202.109 28.3268 203.115 29.0694 203.858C29.8119 204.601 30.8185 205.019 31.8687 205.021H171.969C173.019 205.019 174.026 204.601 174.768 203.858C175.511 203.115 175.929 202.109 175.931 201.059V4.10694C175.929 3.05679 175.511 2.0502 174.768 1.30763C174.026 0.56506 173.019 0.14704 171.969 0.145122H31.8687Z" fill="#EBEBEB"/>
<path d="M328.925 205.202H188.81C187.712 205.2 186.659 204.763 185.883 203.986C185.106 203.21 184.669 202.157 184.667 201.059V4.10694C184.679 3.01498 185.12 1.97153 185.896 1.20276C186.671 0.433992 187.718 0.00184906 188.81 0H328.925C330.015 0.00377642 331.06 0.436997 331.833 1.20576C332.606 1.97453 333.045 3.0169 333.054 4.10694V201.059C333.054 202.155 332.62 203.207 331.846 203.983C331.072 204.76 330.022 205.198 328.925 205.202ZM188.81 0.145122C187.76 0.14704 186.754 0.56506 186.011 1.30763C185.269 2.0502 184.851 3.05679 184.849 4.10694V201.059C184.851 202.109 185.269 203.115 186.011 203.858C186.754 204.601 187.76 205.019 188.81 205.021H328.925C329.975 205.019 330.982 204.601 331.725 203.858C332.467 203.115 332.885 202.109 332.887 201.059V4.10694C332.885 3.05679 332.467 2.0502 331.725 1.30763C330.982 0.56506 329.975 0.14704 328.925 0.145122H188.81Z" fill="#EBEBEB"/>
<path d="M362.804 237.564H0V237.745H362.804V237.564Z" fill="#EBEBEB"/>
<path d="M157.45 97.7031H122.715V237.107H157.45V97.7031Z" fill="#F0F0F0"/>
<path d="M158.574 105.184H122.163V110.314H158.574V105.184Z" fill="#F5F5F5"/>
<path d="M158.574 116.271H122.163V121.402H158.574V116.271Z" fill="#F5F5F5"/>
<path d="M158.574 127.352H122.163V132.482H158.574V127.352Z" fill="#F5F5F5"/>
<path d="M158.574 138.431H122.163V143.561H158.574V138.431Z" fill="#F5F5F5"/>
<path d="M158.574 149.519H122.163V154.649H158.574V149.519Z" fill="#F5F5F5"/>
<path d="M158.574 160.599H122.163V165.729H158.574V160.599Z" fill="#F5F5F5"/>
<path d="M158.574 171.686H122.163V176.816H158.574V171.686Z" fill="#F5F5F5"/>
<path d="M158.574 182.766H122.163V187.896H158.574V182.766Z" fill="#F5F5F5"/>
<path d="M158.574 193.846H122.163V198.976H158.574V193.846Z" fill="#F5F5F5"/>
<path d="M158.574 204.933H122.163V210.063H158.574V204.933Z" fill="#F5F5F5"/>
<path d="M158.574 216.013H122.163V221.143H158.574V216.013Z" fill="#F5F5F5"/>
<path d="M158.574 227.101H122.163V232.231H158.574V227.101Z" fill="#F5F5F5"/>
<path d="M103.878 237.107H62.678V50.4153L103.878 67.1623V237.107Z" fill="#EBEBEB"/>
<path d="M76.1599 70.0938H64.8984V81.3552H76.1599V70.0938Z" fill="#FAFAFA"/>
<path d="M88.9088 70.0938H77.6473V81.3552H88.9088V70.0938Z" fill="#F0F0F0"/>
<path d="M101.658 70.0938H90.3962V81.3552H101.658V70.0938Z" fill="#FAFAFA"/>
<path d="M76.1599 82.6758H64.8984V93.9372H76.1599V82.6758Z" fill="#FAFAFA"/>
<path d="M88.9088 82.6758H77.6473V93.9372H88.9088V82.6758Z" fill="#FAFAFA"/>
<path d="M101.658 82.6758H90.3962V93.9372H101.658V82.6758Z" fill="#FAFAFA"/>
<path d="M76.1599 95.2505H64.8984V106.512H76.1599V95.2505Z" fill="#FAFAFA"/>
<path d="M88.9088 95.2505H77.6473V106.512H88.9088V95.2505Z" fill="#F0F0F0"/>
<path d="M101.658 95.2505H90.3962V106.512H101.658V95.2505Z" fill="#FAFAFA"/>
<path d="M76.1599 107.825H64.8984V119.087H76.1599V107.825Z" fill="#F0F0F0"/>
<path d="M88.9088 107.825H77.6473V119.087H88.9088V107.825Z" fill="#FAFAFA"/>
<path d="M101.658 107.825H90.3962V119.087H101.658V107.825Z" fill="#FAFAFA"/>
<path d="M76.1599 120.407H64.8984V131.669H76.1599V120.407Z" fill="#FAFAFA"/>
<path d="M88.9088 120.407H77.6473V131.669H88.9088V120.407Z" fill="#FAFAFA"/>
<path d="M101.658 120.407H90.3962V131.669H101.658V120.407Z" fill="#F0F0F0"/>
<path d="M76.1599 132.982H64.8984V144.244H76.1599V132.982Z" fill="#FAFAFA"/>
<path d="M88.9088 132.982H77.6473V144.244H88.9088V132.982Z" fill="#F0F0F0"/>
<path d="M101.658 132.982H90.3962V144.244H101.658V132.982Z" fill="#FAFAFA"/>
<path d="M76.1599 145.557H64.8984V156.818H76.1599V145.557Z" fill="#F0F0F0"/>
<path d="M88.9088 145.557H77.6473V156.818H88.9088V145.557Z" fill="#F0F0F0"/>
<path d="M101.658 145.557H90.3962V156.818H101.658V145.557Z" fill="#FAFAFA"/>
<path d="M76.1599 158.139H64.8984V169.4H76.1599V158.139Z" fill="#FAFAFA"/>
<path d="M88.9088 158.139H77.6473V169.4H88.9088V158.139Z" fill="#F0F0F0"/>
<path d="M101.658 158.139H90.3962V169.4H101.658V158.139Z" fill="#FAFAFA"/>
<path d="M76.1599 170.714H64.8984V181.975H76.1599V170.714Z" fill="#FAFAFA"/>
<path d="M88.9088 170.714H77.6473V181.975H88.9088V170.714Z" fill="#FAFAFA"/>
<path d="M101.658 170.714H90.3962V181.975H101.658V170.714Z" fill="#FAFAFA"/>
<path d="M76.1599 183.289H64.8984V194.55H76.1599V183.289Z" fill="#F0F0F0"/>
<path d="M88.9088 183.289H77.6473V194.55H88.9088V183.289Z" fill="#FAFAFA"/>
<path d="M101.658 183.289H90.3962V194.55H101.658V183.289Z" fill="#F0F0F0"/>
<path d="M76.1599 195.871H64.8984V207.132H76.1599V195.871Z" fill="#FAFAFA"/>
<path d="M88.9088 195.871H77.6473V207.132H88.9088V195.871Z" fill="#F0F0F0"/>
<path d="M101.658 195.871H90.3962V207.132H101.658V195.871Z" fill="#FAFAFA"/>
<path d="M76.1599 208.445H64.8984V219.707H76.1599V208.445Z" fill="#F0F0F0"/>
<path d="M88.9088 208.445H77.6473V219.707H88.9088V208.445Z" fill="#FAFAFA"/>
<path d="M101.658 208.445H90.3962V219.707H101.658V208.445Z" fill="#FAFAFA"/>
<path d="M299.408 237.107H263.787V75.7244L299.408 90.2002V237.107Z" fill="#F0F0F0"/>
<path d="M280.535 88.321H275.165V93.6905H280.535V88.321Z" fill="#FAFAFA"/>
<path d="M273.032 96.4187H267.662V101.788H273.032V96.4187Z" fill="#FAFAFA"/>
<path d="M273.032 104.517H267.662V109.886H273.032V104.517Z" fill="#FAFAFA"/>
<path d="M280.535 104.517H275.165V109.886H280.535V104.517Z" fill="#FAFAFA"/>
<path d="M288.03 104.517H282.661V109.886H288.03V104.517Z" fill="#FAFAFA"/>
<path d="M273.032 120.705H267.662V126.074H273.032V120.705Z" fill="#FAFAFA"/>
<path d="M288.03 120.705H282.661V126.074H288.03V120.705Z" fill="#FAFAFA"/>
<path d="M280.535 128.803H275.165V134.172H280.535V128.803Z" fill="#FAFAFA"/>
<path d="M273.032 136.9H267.662V142.27H273.032V136.9Z" fill="#FAFAFA"/>
<path d="M288.03 136.9H282.661V142.27H288.03V136.9Z" fill="#FAFAFA"/>
<path d="M295.533 136.9H290.163V142.27H295.533V136.9Z" fill="#FAFAFA"/>
<path d="M280.535 144.998H275.165V150.368H280.535V144.998Z" fill="#FAFAFA"/>
<path d="M273.032 153.096H267.662V158.465H273.032V153.096Z" fill="#FAFAFA"/>
<path d="M280.535 153.096H275.165V158.465H280.535V153.096Z" fill="#FAFAFA"/>
<path d="M295.533 153.096H290.163V158.465H295.533V153.096Z" fill="#FAFAFA"/>
<path d="M273.074 161.068L267.705 160.991L267.628 166.36L272.997 166.437L273.074 161.068Z" fill="#FAFAFA"/>
<path d="M288.068 161.29L282.699 161.213L282.622 166.582L287.991 166.659L288.068 161.29Z" fill="#FAFAFA"/>
<path d="M295.568 161.39L290.199 161.313L290.122 166.682L295.491 166.759L295.568 161.39Z" fill="#FAFAFA"/>
<path d="M280.535 169.292H275.165V174.661H280.535V169.292Z" fill="#FAFAFA"/>
<path d="M290.156 182.019H295.526V176.649H290.156V182.019Z" fill="#FAFAFA"/>
<path d="M275.158 182.019H280.527V176.649H275.158V182.019Z" fill="#FAFAFA"/>
<path d="M267.662 182.019H273.032V176.649H267.662V182.019Z" fill="#FAFAFA"/>
<path d="M282.661 190.116H288.03V184.747H282.661V190.116Z" fill="#FAFAFA"/>
<path d="M290.156 198.214H295.526V192.845H290.156V198.214Z" fill="#FAFAFA"/>
<path d="M282.661 198.214H288.03V192.845H282.661V198.214Z" fill="#FAFAFA"/>
<path d="M267.662 198.214H273.032V192.845H267.662V198.214Z" fill="#FAFAFA"/>
<path d="M290.203 206.184L295.572 206.107L295.495 200.738L290.126 200.815L290.203 206.184Z" fill="#FAFAFA"/>
<path d="M275.207 206.397L280.576 206.32L280.499 200.951L275.13 201.028L275.207 206.397Z" fill="#FAFAFA"/>
<path d="M267.709 206.507L273.078 206.43L273.001 201.061L267.632 201.138L267.709 206.507Z" fill="#FAFAFA"/>
<path d="M282.661 214.417H288.03V209.048H282.661V214.417Z" fill="#FAFAFA"/>
<path d="M253.317 71.4652V64.4341H239.088V71.4652H215.484V237.107H256.756V71.4652H253.317Z" fill="#F0F0F0"/>
<path d="M234.908 80.3611H228.813V86.4562H234.908V80.3611Z" fill="#FAFAFA"/>
<path d="M243.42 80.3611H237.325V86.4562H243.42V80.3611Z" fill="#FAFAFA"/>
<path d="M226.397 89.5544H220.302V95.6496H226.397V89.5544Z" fill="#FAFAFA"/>
<path d="M234.908 89.5544H228.813V95.6496H234.908V89.5544Z" fill="#FAFAFA"/>
<path d="M251.938 89.5544H245.843V95.6496H251.938V89.5544Z" fill="#FAFAFA"/>
<path d="M226.397 98.748H220.302V104.843H226.397V98.748Z" fill="#FAFAFA"/>
<path d="M243.42 98.748H237.325V104.843H243.42V98.748Z" fill="#FAFAFA"/>
<path d="M251.938 98.748H245.843V104.843H251.938V98.748Z" fill="#FAFAFA"/>
<path d="M226.397 117.135H220.302V123.23H226.397V117.135Z" fill="#FAFAFA"/>
<path d="M243.42 117.135H237.325V123.23H243.42V117.135Z" fill="#FAFAFA"/>
<path d="M226.397 126.328H220.302V132.423H226.397V126.328Z" fill="#FAFAFA"/>
<path d="M234.908 126.328H228.813V132.423H234.908V126.328Z" fill="#FAFAFA"/>
<path d="M251.938 126.328H245.843V132.423H251.938V126.328Z" fill="#FAFAFA"/>
<path d="M226.397 172.23H220.302V178.325H226.397V172.23Z" fill="#FAFAFA"/>
<path d="M234.908 172.23H228.813V178.325H234.908V172.23Z" fill="#FAFAFA"/>
<path d="M251.938 172.23H245.843V178.325H251.938V172.23Z" fill="#FAFAFA"/>
<path d="M226.397 181.417H220.302V187.512H226.397V181.417Z" fill="#FAFAFA"/>
<path d="M243.42 181.417H237.325V187.512H243.42V181.417Z" fill="#FAFAFA"/>
<path d="M251.938 181.417H245.843V187.512H251.938V181.417Z" fill="#FAFAFA"/>
<path d="M226.397 199.803H220.302V205.899H226.397V199.803Z" fill="#FAFAFA"/>
<path d="M243.42 199.803H237.325V205.899H243.42V199.803Z" fill="#FAFAFA"/>
<path d="M226.397 208.997H220.302V215.092H226.397V208.997Z" fill="#FAFAFA"/>
<path d="M234.908 208.997H228.813V215.092H234.908V208.997Z" fill="#FAFAFA"/>
<path d="M251.938 208.997H245.843V215.092H251.938V208.997Z" fill="#FAFAFA"/>
<path d="M251.938 135.515H245.843V141.61H251.938V135.515Z" fill="#FAFAFA"/>
<path d="M226.397 144.708H220.302V150.803H226.397V144.708Z" fill="#FAFAFA"/>
<path d="M234.908 144.708H228.813V150.803H234.908V144.708Z" fill="#FAFAFA"/>
<path d="M243.465 154.006L237.37 153.918L237.283 160.013L243.377 160.1L243.465 154.006Z" fill="#FAFAFA"/>
<path d="M251.973 154.135L245.879 154.047L245.792 160.142L251.886 160.229L251.973 154.135Z" fill="#FAFAFA"/>
<path d="M226.397 163.095H220.302V169.19H226.397V163.095Z" fill="#FAFAFA"/>
<path d="M202.466 97.7031H167.732V237.107H202.466V97.7031Z" fill="#EBEBEB"/>
<path d="M203.584 105.184H167.173V110.314H203.584V105.184Z" fill="#F5F5F5"/>
<path d="M203.584 116.271H167.173V121.402H203.584V116.271Z" fill="#F5F5F5"/>
<path d="M203.584 127.352H167.173V132.482H203.584V127.352Z" fill="#F5F5F5"/>
<path d="M203.584 138.431H167.173V143.561H203.584V138.431Z" fill="#F5F5F5"/>
<path d="M203.584 149.519H167.173V154.649H203.584V149.519Z" fill="#F5F5F5"/>
<path d="M203.584 160.599H167.173V165.729H203.584V160.599Z" fill="#F5F5F5"/>
<path d="M203.584 171.686H167.173V176.816H203.584V171.686Z" fill="#F5F5F5"/>
<path d="M203.584 182.766H167.173V187.896H203.584V182.766Z" fill="#F5F5F5"/>
<path d="M203.584 193.846H167.173V198.976H203.584V193.846Z" fill="#F5F5F5"/>
<path d="M203.584 204.933H167.173V210.063H203.584V204.933Z" fill="#F5F5F5"/>
<path d="M203.584 216.013H167.173V221.143H203.584V216.013Z" fill="#F5F5F5"/>
<path d="M203.584 227.101H167.173V232.231H203.584V227.101Z" fill="#F5F5F5"/>
<path d="M171.969 22.7187C170.988 22.7269 170.032 23.0303 169.226 23.5895C169.578 22.8395 169.796 22.0342 169.872 21.2095C169.966 20.3444 169.875 19.4693 169.604 18.6423C169.334 17.8153 168.89 17.0554 168.303 16.413C167.717 15.7705 167 15.2604 166.201 14.9164C165.401 14.5724 164.538 14.4024 163.668 14.4178C162.54 14.4321 161.431 14.713 160.432 15.2377C160.061 13.9473 159.275 12.8154 158.195 12.0177C157.115 11.2199 155.802 10.801 154.46 10.826C152.61 10.8606 150.836 11.5712 149.474 12.8238C148.112 14.0763 147.255 15.7842 147.066 17.625C147.048 17.9246 147.048 18.2251 147.066 18.5247C146.492 18.3641 145.899 18.2811 145.303 18.278C143.452 18.311 141.678 19.0211 140.315 20.274C138.953 21.5268 138.097 23.2356 137.909 25.0769C137.814 25.9425 137.905 26.8184 138.175 27.6463C138.444 28.4742 138.888 29.2351 139.475 29.8783C140.062 30.5215 140.779 31.0324 141.579 31.3768C142.378 31.7213 143.242 31.8914 144.113 31.8759H171.2C172.442 31.8539 173.633 31.3772 174.548 30.5362C175.463 29.6951 176.037 28.548 176.163 27.3118C176.231 26.7262 176.172 26.1328 175.991 25.5718C175.809 25.0108 175.51 24.4952 175.112 24.0599C174.715 23.6245 174.228 23.2795 173.686 23.0482C173.144 22.8168 172.558 22.7044 171.969 22.7187Z" fill="#F0F0F0"/>
<path d="M144.396 28.901C142.907 28.9121 141.457 29.3697 140.231 30.2144C140.763 29.0705 141.092 27.8429 141.203 26.5863C141.348 25.2711 141.211 23.9401 140.8 22.6822C140.389 21.4244 139.715 20.2686 138.822 19.292C137.93 18.3154 136.839 17.5405 135.623 17.0191C134.407 16.4977 133.093 16.2417 131.77 16.2682C130.046 16.2759 128.348 16.6912 126.814 17.4799C126.252 15.5214 125.059 13.8032 123.42 12.5922C121.782 11.3812 119.789 10.745 117.752 10.7826C114.943 10.8335 112.25 11.9113 110.182 13.8124C108.114 15.7135 106.813 18.3062 106.526 21.1007C106.498 21.5598 106.498 22.0203 106.526 22.4794C105.656 22.2298 104.755 22.1028 103.849 22.1021C101.04 22.1548 98.3467 23.2341 96.2787 25.1364C94.2106 27.0387 92.9105 29.6322 92.6238 32.4275C92.4803 33.7425 92.6186 35.073 93.0296 36.3303C93.4406 37.5876 94.1149 38.743 95.0074 39.7193C95.9 40.6956 96.9903 41.4705 98.2058 41.9923C99.4214 42.5141 100.734 42.771 102.057 42.7456H143.199C145.085 42.7096 146.892 41.9852 148.281 40.7088C149.669 39.4324 150.543 37.6922 150.738 35.8161C150.832 34.9336 150.737 34.0412 150.459 33.1982C150.181 32.3553 149.728 31.581 149.128 30.927C148.528 30.2729 147.796 29.754 146.98 29.4047C146.164 29.0554 145.283 28.8837 144.396 28.901Z" fill="#F5F5F5"/>
<path d="M295.322 40.3874C293.836 40.4 292.388 40.8574 291.165 41.7008C291.697 40.5569 292.026 39.3293 292.137 38.0727C292.282 36.7571 292.144 35.4259 291.734 34.1676C291.323 32.9094 290.649 31.7532 289.756 30.776C288.864 29.7989 287.773 29.0234 286.557 28.5011C285.341 27.9788 284.027 27.7218 282.704 27.7473C280.982 27.754 279.286 28.1693 277.755 28.9591C277.193 26.9993 275.999 25.2802 274.359 24.0691C272.718 22.8579 270.724 22.2226 268.685 22.2617C265.876 22.313 263.183 23.3921 261.116 25.2948C259.049 27.1976 257.751 29.7919 257.467 32.5871C257.435 33.0437 257.435 33.502 257.467 33.9585C256.596 33.7153 255.695 33.5909 254.79 33.5885C251.981 33.6394 249.288 34.7172 247.22 36.6183C245.152 38.5194 243.852 41.1121 243.565 43.9066C243.42 45.2222 243.558 46.5535 243.968 47.8117C244.379 49.0699 245.053 50.2261 245.945 51.2033C246.838 52.1804 247.929 52.956 249.145 53.4782C250.361 54.0005 251.674 54.2575 252.998 54.232H294.132C296.02 54.1974 297.829 53.4724 299.218 52.1942C300.607 50.9161 301.48 49.1732 301.671 47.2952C301.764 46.4126 301.668 45.5204 301.39 44.6778C301.111 43.8353 300.657 43.0616 300.056 42.4082C299.456 41.7548 298.723 41.2367 297.907 40.8883C297.091 40.5399 296.21 40.3692 295.322 40.3874Z" fill="#FAFAFA"/>
<path d="M251.264 37.3397C250.261 37.3511 249.284 37.6591 248.455 38.2249C248.818 37.4604 249.042 36.6373 249.116 35.7942C249.213 34.9083 249.12 34.012 248.844 33.1648C248.567 32.3176 248.114 31.539 247.513 30.8807C246.912 30.2224 246.179 29.6995 245.36 29.3469C244.542 28.9943 243.658 28.82 242.767 28.8356C241.605 28.8402 240.461 29.1212 239.429 29.6555C239.05 28.3351 238.246 27.1769 237.141 26.3607C236.036 25.5445 234.693 25.1162 233.319 25.1422C232.294 25.1278 231.278 25.3242 230.332 25.7191C229.386 26.114 228.531 26.6991 227.821 27.4379C227.111 28.1768 226.56 29.0538 226.203 30.0144C225.845 30.9751 225.689 31.9989 225.744 33.0223C225.156 32.8582 224.548 32.7752 223.937 32.7756C222.044 32.8099 220.23 33.5359 218.835 34.8165C217.441 36.0971 216.564 37.8439 216.369 39.727C216.272 40.6128 216.365 41.5091 216.641 42.3563C216.918 43.2035 217.371 43.9822 217.972 44.6404C218.572 45.2987 219.306 45.8216 220.125 46.1742C220.943 46.5268 221.827 46.7011 222.718 46.6855H250.451C251.722 46.662 252.941 46.1736 253.877 45.3126C254.813 44.4516 255.401 43.2777 255.53 42.0126C255.595 41.4175 255.533 40.8154 255.347 40.2464C255.161 39.6773 254.856 39.1543 254.453 38.7122C254.049 38.2702 253.556 37.9191 253.006 37.6825C252.456 37.4458 251.862 37.329 251.264 37.3397Z" fill="#F5F5F5"/>
<path d="M177.905 267.539C255.604 267.539 318.593 263.861 318.593 259.325C318.593 254.789 255.604 251.111 177.905 251.111C100.205 251.111 37.2164 254.789 37.2164 259.325C37.2164 263.861 100.205 267.539 177.905 267.539Z" fill="#F5F5F5"/>
<path d="M167.797 194.978L318.273 206.203C320.147 206.343 322 205.734 323.426 204.51C324.851 203.286 325.733 201.546 325.878 199.673L328.134 169.371C328.267 167.633 327.971 165.889 327.271 164.292L321.466 151.1C320.52 148.944 319.006 147.084 317.085 145.722C315.164 144.359 312.909 143.545 310.56 143.365L244.53 138.446C234.706 137.707 224.915 140.26 216.703 145.702L199.905 156.847L170.271 160.207C168.265 160.436 166.349 161.168 164.701 162.333C163.052 163.499 161.724 165.061 160.838 166.875L157.892 172.883C157.093 174.522 156.676 176.321 156.673 178.144V182.94C156.663 185.981 157.804 188.913 159.868 191.146C161.932 193.38 164.765 194.749 167.797 194.978Z" fill="#263238"/>
<path d="M325.849 199.898L322.344 199.702C321.234 194.838 318.573 190.467 314.761 187.248C310.949 184.03 306.194 182.138 301.213 181.859C296.232 181.579 291.295 182.927 287.148 185.7C283 188.472 279.867 192.518 278.22 197.227L208.046 193.302C207.352 187.984 204.821 183.076 200.892 179.426C196.962 175.777 191.881 173.615 186.527 173.314C181.172 173.014 175.881 174.594 171.568 177.781C167.255 180.969 164.191 185.563 162.906 190.769L159.373 190.574C160.24 191.626 161.278 192.526 162.442 193.237C162.558 193.309 162.681 193.36 162.805 193.425C162.928 193.491 163.16 193.628 163.349 193.715C163.538 193.803 163.741 193.904 163.937 193.991C164.133 194.078 164.379 194.173 164.604 194.252C164.829 194.332 164.967 194.39 165.156 194.448C165.344 194.506 165.707 194.601 165.983 194.666C166.142 194.666 166.295 194.746 166.447 194.775C166.89 194.855 167.347 194.92 167.804 194.956L208.184 197.968L276.994 203.098L318.281 206.181C318.506 206.181 318.731 206.181 318.956 206.181H319.18H319.623L319.884 206.145L320.269 206.073C320.363 206.073 320.45 206.029 320.537 206.007L320.9 205.913L321.161 205.826L321.51 205.688L321.756 205.586L322.105 205.405L322.322 205.296L322.692 205.064L322.852 204.955L322.932 204.904C323.742 204.321 324.42 203.574 324.923 202.711C325.425 201.849 325.741 200.89 325.849 199.898Z" fill="#263238"/>
<path opacity="0.4" d="M325.849 199.898L322.344 199.702C321.234 194.838 318.573 190.467 314.761 187.248C310.949 184.03 306.194 182.138 301.213 181.859C296.232 181.579 291.295 182.927 287.148 185.7C283 188.472 279.867 192.518 278.22 197.227L208.046 193.302C207.352 187.984 204.821 183.076 200.892 179.426C196.962 175.777 191.881 173.615 186.527 173.314C181.172 173.014 175.881 174.594 171.568 177.781C167.255 180.969 164.191 185.563 162.906 190.769L159.373 190.574C160.24 191.626 161.278 192.526 162.442 193.237C162.558 193.309 162.681 193.36 162.805 193.425C162.928 193.491 163.16 193.628 163.349 193.715C163.538 193.803 163.741 193.904 163.937 193.991C164.133 194.078 164.379 194.173 164.604 194.252C164.829 194.332 164.967 194.39 165.156 194.448C165.344 194.506 165.707 194.601 165.983 194.666C166.142 194.666 166.295 194.746 166.447 194.775C166.89 194.855 167.347 194.92 167.804 194.956L208.184 197.968L276.994 203.098L318.281 206.181C318.506 206.181 318.731 206.181 318.956 206.181H319.18H319.623L319.884 206.145L320.269 206.073C320.363 206.073 320.45 206.029 320.537 206.007L320.9 205.913L321.161 205.826L321.51 205.688L321.756 205.586L322.105 205.405L322.322 205.296L322.692 205.064L322.852 204.955L322.932 204.904C323.742 204.321 324.42 203.574 324.923 202.711C325.425 201.849 325.741 200.89 325.849 199.898Z" fill="white"/>
<path opacity="0.7" d="M178.833 161.905L179.457 161.23L170.518 162.239C168.848 162.429 167.253 163.036 165.88 164.005C164.506 164.974 163.399 166.273 162.66 167.782L160.904 171.41L165.381 170.155C170.545 168.71 175.204 165.853 178.833 161.905Z" fill="white"/>
<path opacity="0.7" d="M161.499 184.384C161.361 186.285 160.505 187.766 159.59 187.693C158.676 187.62 158.052 186.039 158.197 184.138C158.342 182.236 159.191 180.763 160.105 180.829C161.02 180.894 161.644 182.49 161.499 184.384Z" fill="white"/>
<path opacity="0.1" d="M311.074 169.526L307.181 169.235C306.214 169.163 305.372 169.888 305.3 170.856L305.008 174.756C304.936 175.723 305.662 176.565 306.629 176.638L310.522 176.928C311.489 177 312.331 176.275 312.403 175.308L312.695 171.408C312.767 170.441 312.041 169.598 311.074 169.526Z" fill="white"/>
<path d="M290.787 149.751C290.114 148.424 289.11 147.292 287.872 146.466C286.634 145.64 285.204 145.147 283.72 145.034L244.276 142.132C236.026 141.515 232.666 143.765 225.229 148.663L212.647 157.014C212.249 157.278 211.945 157.66 211.778 158.107C211.612 158.554 211.591 159.042 211.719 159.502C211.847 159.961 212.118 160.368 212.492 160.664C212.866 160.961 213.324 161.131 213.8 161.15L298.341 164.713L290.787 149.751Z" fill="#263238"/>
<path opacity="0.3" d="M290.787 149.751C290.114 148.424 289.11 147.292 287.872 146.466C286.634 145.64 285.204 145.147 283.72 145.034L244.276 142.132C236.026 141.515 232.666 143.765 225.229 148.663L212.647 157.014C212.249 157.278 211.945 157.66 211.778 158.107C211.612 158.554 211.591 159.042 211.719 159.502C211.847 159.961 212.118 160.368 212.492 160.664C212.866 160.961 213.324 161.131 213.8 161.15L298.341 164.713L290.787 149.751Z" fill="white"/>
<path d="M327.249 164.292L321.444 151.101C320.9 149.86 320.166 148.712 319.267 147.697H319.18L295.765 145.949L308.55 162.26C309.281 163.192 310.205 163.953 311.258 164.493C312.312 165.033 313.47 165.338 314.653 165.388L327.844 166.113C327.699 165.49 327.499 164.881 327.249 164.292Z" fill="#263238"/>
<path opacity="0.3" d="M327.249 164.292L321.444 151.101C320.9 149.86 320.166 148.712 319.267 147.697H319.18L295.765 145.949L308.55 162.26C309.281 163.192 310.205 163.953 311.258 164.493C312.312 165.033 313.47 165.338 314.653 165.388L327.844 166.113C327.699 165.49 327.499 164.881 327.249 164.292Z" fill="white"/>
<path d="M205.558 156.064L229.815 139.825C225.171 141.07 220.76 143.06 216.754 145.717L199.956 156.862L202.133 157C203.346 157.073 204.55 156.744 205.558 156.064Z" fill="#263238"/>
<path opacity="0.3" d="M205.558 156.064L229.815 139.825C225.171 141.07 220.76 143.06 216.754 145.717L199.956 156.862L202.133 157C203.346 157.073 204.55 156.744 205.558 156.064Z" fill="white"/>
<path opacity="0.7" d="M250.442 166.537L243.011 165.982C242.488 165.943 242.031 166.336 241.992 166.86L241.976 167.084C241.936 167.607 242.329 168.063 242.853 168.103L250.284 168.657C250.808 168.696 251.264 168.304 251.303 167.78L251.319 167.556C251.359 167.032 250.966 166.576 250.442 166.537Z" fill="white"/>
<path opacity="0.7" d="M297.82 168.536L290.389 167.981C289.865 167.942 289.409 168.335 289.37 168.858L289.354 169.082C289.314 169.606 289.707 170.062 290.231 170.101L297.662 170.656C298.185 170.695 298.642 170.302 298.681 169.779L298.697 169.554C298.736 169.031 298.344 168.575 297.82 168.536Z" fill="white"/>
<path opacity="0.7" d="M323.091 171.127L327.329 180.154L328.134 169.357C328.134 169.052 328.134 168.747 328.134 168.443L325.08 168.218C324.725 168.194 324.37 168.264 324.05 168.419C323.73 168.575 323.456 168.811 323.255 169.105C323.054 169.399 322.934 169.74 322.905 170.094C322.876 170.449 322.94 170.805 323.091 171.127Z" fill="white"/>
<path d="M243.354 138.381C246.385 137.11 249.681 136.599 252.954 136.893L271.704 138.562L271.356 140.441L273.808 140.623L274.149 138.773L298.82 140.949C301.392 141.172 303.899 141.882 306.207 143.039L310.56 143.366L311.286 143.445C307.789 140.634 303.536 138.924 299.067 138.533L253.179 134.462C247.986 134.005 242.793 135.339 238.464 138.243L238.166 138.439C239.893 138.315 241.625 138.295 243.354 138.381Z" fill="#263238"/>
<path opacity="0.5" d="M243.354 138.381C246.385 137.11 249.681 136.599 252.954 136.893L271.704 138.562L271.356 140.441L273.808 140.623L274.149 138.773L298.82 140.949C301.392 141.172 303.899 141.882 306.207 143.039L310.56 143.366L311.286 143.445C307.789 140.634 303.536 138.924 299.067 138.533L253.179 134.462C247.986 134.005 242.793 135.339 238.464 138.243L238.166 138.439C239.893 138.315 241.625 138.295 243.354 138.381Z" fill="white"/>
<g opacity="0.3">
<path d="M208.823 163.262C208.339 169.816 207.855 176.366 207.371 182.911C207.362 183.04 207.404 183.168 207.488 183.266C207.573 183.364 207.692 183.424 207.821 183.434C207.95 183.443 208.078 183.401 208.176 183.317C208.274 183.233 208.334 183.113 208.344 182.984C208.828 176.434 209.311 169.884 209.795 163.334C209.805 163.205 209.763 163.078 209.678 162.98C209.636 162.931 209.586 162.892 209.528 162.863C209.471 162.834 209.409 162.817 209.345 162.812C209.216 162.802 209.089 162.844 208.991 162.929C208.893 163.013 208.832 163.133 208.823 163.262Z" fill="white"/>
</g>
<g opacity="0.3">
<path d="M253.593 165.751L249.152 192.518C249.043 193.135 250.023 193.208 250.124 192.591L254.565 165.823C254.667 165.206 253.694 165.134 253.593 165.751Z" fill="white"/>
</g>
<g opacity="0.3">
<path d="M300.794 168.457C300.31 172.051 299.841 175.645 299.386 179.24C299.306 179.864 300.278 179.965 300.358 179.312L301.773 168.53C301.853 167.906 300.881 167.804 300.794 168.457Z" fill="white"/>
</g>
<path opacity="0.1" d="M277.618 163.821L285.89 145.492C285.187 145.244 284.455 145.091 283.713 145.035L282.153 144.918L273.678 163.661L277.618 163.821Z" fill="white"/>
<g opacity="0.1">
<path d="M252.729 162.783L257.199 152.893L257.925 143.112L244.269 142.096C243.819 142.059 243.383 142.038 242.955 142.023L233.922 161.992L252.729 162.783Z" fill="white"/>
<path d="M290.787 149.751C290.17 148.553 289.284 147.515 288.197 146.718L280.411 163.936L298.341 164.662L290.787 149.751Z" fill="white"/>
</g>
<path d="M251.626 162.732L257.373 162.972L260.987 143.337L255.276 142.916L251.626 162.732Z" fill="#263238"/>
<path d="M195.95 208.749C202.825 202.829 203.6 192.457 197.68 185.582C191.76 178.706 181.387 177.932 174.512 183.852C167.636 189.772 166.862 200.144 172.782 207.02C178.702 213.895 189.074 214.669 195.95 208.749Z" fill="#263238"/>
<path opacity="0.5" d="M193.849 201.867C196.925 197.107 195.56 190.756 190.8 187.681C186.041 184.605 179.69 185.97 176.614 190.73C173.539 195.489 174.904 201.84 179.663 204.916C184.423 207.991 190.774 206.626 193.849 201.867Z" fill="white"/>
<g opacity="0.3">
<path d="M186.713 193.331C186.85 193.399 187.001 193.429 187.153 193.419C187.305 193.409 187.451 193.358 187.577 193.273L190.617 191.096C190.721 191.023 190.806 190.927 190.868 190.816C190.929 190.705 190.964 190.582 190.97 190.455C190.976 190.329 190.954 190.202 190.904 190.086C190.854 189.969 190.778 189.865 190.683 189.783C189.676 188.929 188.483 188.325 187.2 188.019C187.075 187.992 186.946 187.993 186.822 188.023C186.698 188.053 186.582 188.11 186.483 188.191C186.385 188.272 186.306 188.375 186.253 188.491C186.2 188.607 186.173 188.733 186.177 188.861L186.249 192.583C186.248 192.739 186.292 192.892 186.374 193.024C186.456 193.156 186.574 193.263 186.713 193.331Z" fill="black"/>
<path d="M184.203 193.15C184.347 193.102 184.476 193.016 184.576 192.901C184.676 192.786 184.742 192.646 184.769 192.496L185.393 188.825C185.414 188.7 185.406 188.571 185.371 188.449C185.335 188.327 185.272 188.215 185.187 188.121C185.102 188.027 184.997 187.953 184.879 187.905C184.761 187.857 184.634 187.837 184.508 187.845C183.191 187.954 181.918 188.372 180.792 189.064C180.686 189.134 180.597 189.226 180.531 189.334C180.465 189.443 180.425 189.565 180.413 189.691C180.401 189.818 180.418 189.945 180.463 190.064C180.507 190.183 180.577 190.29 180.669 190.378L183.354 192.961C183.464 193.067 183.602 193.141 183.752 193.175C183.902 193.208 184.058 193.199 184.203 193.15Z" fill="black"/>
<path d="M182.287 194.804C182.358 194.67 182.391 194.519 182.38 194.368C182.37 194.216 182.318 194.071 182.229 193.948L180.052 190.908C179.98 190.803 179.885 190.717 179.774 190.655C179.663 190.594 179.54 190.558 179.413 190.551C179.287 190.544 179.16 190.566 179.043 190.615C178.926 190.664 178.822 190.739 178.739 190.835C177.888 191.844 177.286 193.04 176.983 194.325C176.954 194.449 176.954 194.578 176.983 194.703C177.012 194.827 177.069 194.943 177.149 195.041C177.23 195.14 177.332 195.219 177.448 195.272C177.564 195.326 177.69 195.352 177.817 195.348L181.54 195.276C181.696 195.276 181.849 195.231 181.982 195.148C182.114 195.065 182.22 194.945 182.287 194.804Z" fill="black"/>
<path d="M191.14 191.713L188.549 194.405C188.445 194.515 188.372 194.652 188.34 194.8C188.308 194.949 188.318 195.103 188.368 195.247C188.416 195.39 188.502 195.518 188.617 195.617C188.732 195.715 188.872 195.78 189.021 195.805L192.692 196.429C192.818 196.452 192.947 196.445 193.069 196.41C193.192 196.375 193.305 196.313 193.399 196.227C193.494 196.142 193.568 196.036 193.615 195.917C193.662 195.799 193.682 195.671 193.672 195.544C193.56 194.229 193.14 192.959 192.446 191.836C192.377 191.73 192.286 191.641 192.178 191.575C192.07 191.509 191.948 191.469 191.823 191.457C191.697 191.445 191.57 191.462 191.452 191.507C191.333 191.551 191.227 191.621 191.14 191.713Z" fill="black"/>
<path d="M186.271 199.404C186.126 199.449 185.996 199.533 185.896 199.647C185.797 199.761 185.73 199.901 185.705 200.05L185.081 203.729C185.06 203.854 185.067 203.983 185.103 204.104C185.138 204.226 185.201 204.339 185.286 204.433C185.371 204.527 185.477 204.601 185.595 204.649C185.712 204.696 185.839 204.717 185.966 204.708C187.283 204.594 188.555 204.174 189.681 203.482C189.787 203.413 189.877 203.321 189.942 203.212C190.008 203.104 190.048 202.982 190.06 202.855C190.072 202.729 190.055 202.602 190.011 202.483C189.967 202.364 189.896 202.257 189.804 202.169L187.12 199.586C187.008 199.48 186.87 199.408 186.721 199.376C186.571 199.344 186.415 199.354 186.271 199.404Z" fill="black"/>
<path d="M182.128 197.315C182.079 197.171 181.993 197.044 181.878 196.946C181.763 196.847 181.624 196.782 181.475 196.756L177.803 196.132C177.677 196.109 177.549 196.116 177.426 196.151C177.303 196.186 177.19 196.249 177.096 196.334C177.001 196.419 176.928 196.525 176.88 196.644C176.833 196.762 176.814 196.89 176.823 197.017C176.936 198.334 177.356 199.607 178.05 200.732C178.118 200.838 178.21 200.928 178.318 200.993C178.426 201.059 178.547 201.099 178.673 201.111C178.799 201.123 178.925 201.106 179.044 201.062C179.162 201.018 179.269 200.947 179.356 200.856L181.939 198.171C182.048 198.061 182.124 197.922 182.157 197.77C182.191 197.618 182.18 197.46 182.128 197.315Z" fill="black"/>
<path d="M188.179 197.757C188.108 197.892 188.076 198.045 188.086 198.197C188.096 198.35 188.149 198.496 188.237 198.621L190.414 201.661C190.487 201.765 190.583 201.85 190.694 201.911C190.805 201.972 190.928 202.008 191.055 202.014C191.181 202.02 191.308 201.997 191.424 201.948C191.541 201.898 191.644 201.822 191.727 201.726C192.583 200.719 193.188 199.523 193.491 198.236C193.518 198.112 193.517 197.984 193.488 197.861C193.458 197.738 193.401 197.623 193.321 197.525C193.24 197.427 193.139 197.349 193.024 197.296C192.908 197.243 192.783 197.217 192.656 197.22L188.926 197.286C188.771 197.288 188.618 197.333 188.487 197.416C188.355 197.5 188.248 197.618 188.179 197.757Z" fill="black"/>
<path d="M183.76 199.223C183.624 199.154 183.472 199.124 183.319 199.136C183.167 199.147 183.021 199.2 182.897 199.288L179.856 201.465C179.752 201.537 179.666 201.633 179.604 201.743C179.543 201.854 179.507 201.977 179.5 202.104C179.493 202.231 179.515 202.357 179.564 202.474C179.613 202.591 179.688 202.695 179.784 202.778C180.794 203.63 181.989 204.234 183.274 204.542C183.401 204.571 183.533 204.57 183.66 204.54C183.787 204.51 183.905 204.45 184.004 204.367C184.104 204.283 184.183 204.177 184.236 204.058C184.288 203.938 184.311 203.808 184.304 203.678L184.232 199.948C184.227 199.796 184.181 199.648 184.097 199.52C184.014 199.392 183.898 199.289 183.76 199.223Z" fill="black"/>
</g>
<path d="M310.645 217.3C317.52 211.38 318.294 201.008 312.374 194.132C306.454 187.257 296.082 186.483 289.207 192.403C282.331 198.322 281.557 208.695 287.477 215.57C293.397 222.446 303.769 223.22 310.645 217.3Z" fill="#263238"/>
<path opacity="0.5" d="M303.204 214.539C308.575 212.734 311.465 206.916 309.66 201.545C307.854 196.174 302.037 193.283 296.665 195.089C291.294 196.894 288.404 202.712 290.209 208.083C292.015 213.454 297.833 216.345 303.204 214.539Z" fill="white"/>
<g opacity="0.3">
<path d="M301.403 201.886C301.539 201.955 301.691 201.987 301.843 201.976C301.995 201.966 302.141 201.915 302.267 201.828L305.307 199.651C305.411 199.579 305.497 199.483 305.559 199.373C305.621 199.262 305.656 199.139 305.663 199.012C305.67 198.885 305.649 198.759 305.599 198.642C305.55 198.525 305.475 198.421 305.379 198.338C304.369 197.488 303.174 196.886 301.889 196.582C301.765 196.553 301.636 196.553 301.512 196.582C301.388 196.61 301.272 196.667 301.173 196.748C301.074 196.828 300.995 196.931 300.942 197.046C300.889 197.162 300.863 197.289 300.866 197.416L300.939 201.139C300.938 201.294 300.981 201.447 301.063 201.579C301.145 201.711 301.263 201.818 301.403 201.886Z" fill="black"/>
<path d="M298.892 201.719C299.037 201.672 299.166 201.586 299.266 201.471C299.365 201.356 299.432 201.216 299.458 201.066L300.082 197.394C300.104 197.269 300.096 197.141 300.06 197.019C300.025 196.897 299.962 196.785 299.877 196.69C299.792 196.596 299.686 196.522 299.569 196.475C299.451 196.427 299.324 196.407 299.197 196.415C297.88 196.526 296.607 196.946 295.482 197.641C295.376 197.71 295.287 197.801 295.221 197.909C295.155 198.017 295.115 198.138 295.103 198.264C295.091 198.39 295.108 198.517 295.152 198.635C295.197 198.753 295.267 198.86 295.359 198.947L298.044 201.53C298.153 201.638 298.291 201.713 298.441 201.747C298.591 201.78 298.748 201.77 298.892 201.719Z" fill="black"/>
<path d="M296.984 203.359C297.055 203.225 297.088 203.074 297.077 202.923C297.067 202.771 297.015 202.626 296.926 202.503L294.749 199.462C294.677 199.358 294.582 199.272 294.471 199.21C294.36 199.149 294.237 199.113 294.11 199.106C293.984 199.099 293.857 199.121 293.74 199.17C293.623 199.219 293.519 199.294 293.436 199.39C292.581 200.398 291.977 201.594 291.673 202.88C291.645 203.004 291.646 203.133 291.676 203.256C291.705 203.38 291.762 203.495 291.842 203.594C291.923 203.692 292.024 203.771 292.139 203.825C292.254 203.878 292.38 203.905 292.507 203.903L296.237 203.831C296.393 203.829 296.545 203.784 296.677 203.701C296.809 203.617 296.915 203.499 296.984 203.359Z" fill="black"/>
<path d="M305.829 200.268L303.246 202.953C303.14 203.062 303.066 203.198 303.032 203.347C302.999 203.495 303.008 203.65 303.057 203.794C303.105 203.939 303.191 204.068 303.306 204.168C303.421 204.267 303.561 204.334 303.711 204.36L307.382 204.984C307.508 205.009 307.637 205.004 307.761 204.971C307.884 204.938 307.999 204.877 308.095 204.793C308.192 204.709 308.268 204.605 308.318 204.487C308.368 204.369 308.39 204.241 308.383 204.114C308.272 202.796 307.852 201.523 307.157 200.398C307.09 200.288 306.998 200.194 306.888 200.126C306.779 200.057 306.655 200.014 306.526 200.002C306.397 199.989 306.267 200.006 306.146 200.053C306.025 200.099 305.917 200.173 305.829 200.268Z" fill="black"/>
<path d="M300.96 207.966C300.815 208.013 300.685 208.098 300.585 208.213C300.486 208.328 300.419 208.469 300.394 208.62L299.77 212.291C299.749 212.416 299.757 212.545 299.793 212.667C299.828 212.789 299.891 212.901 299.976 212.995C300.061 213.089 300.167 213.163 300.284 213.211C300.402 213.259 300.529 213.279 300.656 213.271C301.973 213.16 303.246 212.74 304.371 212.044C304.477 211.976 304.566 211.884 304.632 211.776C304.698 211.669 304.738 211.547 304.75 211.421C304.762 211.296 304.745 211.169 304.701 211.05C304.656 210.932 304.586 210.825 304.494 210.738L301.809 208.148C301.698 208.043 301.56 207.97 301.41 207.938C301.261 207.906 301.105 207.916 300.96 207.966Z" fill="black"/>
<path d="M296.774 205.869C296.726 205.726 296.64 205.598 296.525 205.5C296.41 205.401 296.27 205.336 296.121 205.311L292.449 204.687C292.324 204.666 292.195 204.673 292.073 204.709C291.952 204.744 291.839 204.807 291.745 204.892C291.651 204.977 291.577 205.083 291.529 205.201C291.482 205.318 291.461 205.445 291.469 205.572C291.58 206.89 292.001 208.162 292.696 209.287C292.764 209.393 292.856 209.483 292.964 209.548C293.072 209.614 293.193 209.654 293.319 209.666C293.445 209.678 293.571 209.661 293.69 209.617C293.808 209.573 293.915 209.502 294.002 209.41L296.592 206.726C296.699 206.614 296.772 206.474 296.804 206.323C296.836 206.172 296.826 206.015 296.774 205.869Z" fill="black"/>
<path d="M302.869 206.312C302.798 206.447 302.766 206.6 302.776 206.752C302.786 206.904 302.838 207.051 302.927 207.176L305.104 210.216C305.177 210.32 305.272 210.405 305.383 210.466C305.494 210.527 305.618 210.562 305.744 210.569C305.871 210.575 305.997 210.552 306.114 210.503C306.23 210.453 306.334 210.377 306.417 210.281C307.27 209.273 307.871 208.077 308.173 206.791C308.202 206.667 308.202 206.538 308.173 206.415C308.145 206.291 308.088 206.175 308.007 206.077C307.926 205.979 307.824 205.9 307.708 205.848C307.592 205.796 307.466 205.771 307.339 205.775L303.616 205.848C303.461 205.848 303.308 205.891 303.176 205.973C303.044 206.055 302.938 206.173 302.869 206.312Z" fill="black"/>
<path d="M298.45 207.778C298.315 207.707 298.162 207.675 298.01 207.685C297.857 207.695 297.711 207.747 297.586 207.836L294.546 210.013C294.442 210.085 294.356 210.18 294.294 210.291C294.232 210.402 294.196 210.525 294.189 210.652C294.182 210.778 294.204 210.905 294.254 211.022C294.303 211.139 294.378 211.243 294.473 211.326C295.483 212.178 296.679 212.782 297.964 213.089C298.088 213.117 298.216 213.116 298.34 213.086C298.463 213.057 298.579 213 298.677 212.92C298.776 212.839 298.855 212.738 298.908 212.623C298.962 212.508 298.989 212.382 298.987 212.255L298.914 208.525C298.914 208.37 298.871 208.217 298.789 208.085C298.706 207.953 298.589 207.847 298.45 207.778Z" fill="black"/>
</g>
<path d="M181.663 203.468L182.244 203.729C182.32 203.763 182.389 203.814 182.444 203.878C182.499 203.941 182.54 204.016 182.563 204.096C182.587 204.177 182.592 204.262 182.58 204.345C182.567 204.428 182.537 204.508 182.49 204.578L176.838 213.046L174.777 211.972L180.959 203.649C181.039 203.544 181.152 203.469 181.28 203.437C181.408 203.404 181.543 203.415 181.663 203.468Z" fill="#407BFF"/>
<path d="M187.345 203.896L186.728 204.063C186.647 204.086 186.573 204.127 186.509 204.182C186.446 204.237 186.395 204.305 186.361 204.382C186.326 204.458 186.309 204.542 186.31 204.626C186.31 204.709 186.329 204.792 186.365 204.868L190.719 214.076L192.896 213.351L188.02 204.208C187.963 204.084 187.863 203.985 187.74 203.928C187.616 203.871 187.476 203.859 187.345 203.896Z" fill="#407BFF"/>
<g opacity="0.5">
<path d="M181.663 203.468L182.244 203.729C182.32 203.763 182.389 203.814 182.444 203.878C182.499 203.941 182.54 204.016 182.563 204.096C182.587 204.177 182.592 204.262 182.58 204.345C182.567 204.428 182.537 204.508 182.49 204.578L176.838 213.046L174.777 211.972L180.959 203.649C181.039 203.544 181.152 203.469 181.28 203.437C181.408 203.404 181.543 203.415 181.663 203.468Z" fill="white"/>
<path d="M187.345 203.896L186.728 204.063C186.647 204.086 186.573 204.127 186.509 204.182C186.446 204.237 186.395 204.305 186.361 204.382C186.326 204.458 186.309 204.542 186.31 204.626C186.31 204.709 186.329 204.792 186.365 204.868L190.719 214.076L192.896 213.351L188.02 204.208C187.963 204.084 187.863 203.985 187.74 203.928C187.616 203.871 187.476 203.859 187.345 203.896Z" fill="white"/>
</g>
<path d="M296.708 212.052L297.296 212.313C297.372 212.348 297.44 212.399 297.494 212.463C297.549 212.527 297.589 212.602 297.611 212.682C297.634 212.763 297.639 212.848 297.626 212.93C297.613 213.013 297.582 213.092 297.536 213.162L291.883 221.622L289.822 220.585L296.048 212.233C296.124 212.136 296.229 212.066 296.348 212.033C296.467 212 296.593 212.007 296.708 212.052Z" fill="#407BFF"/>
<path d="M302.39 212.472L301.78 212.647C301.699 212.669 301.624 212.709 301.559 212.764C301.495 212.819 301.444 212.887 301.408 212.963C301.373 213.04 301.355 213.124 301.355 213.208C301.356 213.292 301.374 213.376 301.41 213.452L305.764 222.66L307.941 221.934L303.057 212.792C303 212.67 302.902 212.572 302.78 212.514C302.659 212.456 302.521 212.441 302.39 212.472Z" fill="#407BFF"/>
<g opacity="0.5">
<path d="M296.708 212.052L297.296 212.313C297.372 212.348 297.44 212.399 297.494 212.463C297.549 212.527 297.589 212.602 297.611 212.682C297.634 212.763 297.639 212.848 297.626 212.93C297.613 213.013 297.582 213.092 297.536 213.162L291.883 221.622L289.822 220.585L296.048 212.233C296.124 212.136 296.229 212.066 296.348 212.033C296.467 212 296.593 212.007 296.708 212.052Z" fill="white"/>
<path d="M302.39 212.472L301.78 212.647C301.699 212.669 301.624 212.709 301.56 212.764C301.495 212.819 301.444 212.887 301.409 212.963C301.373 213.04 301.355 213.124 301.356 213.208C301.356 213.292 301.375 213.376 301.41 213.452L305.764 222.66L307.941 221.934L303.058 212.792C303 212.67 302.902 212.572 302.78 212.514C302.659 212.456 302.521 212.441 302.39 212.472Z" fill="white"/>
</g>
<path d="M277.16 212.668H205.891V237.448H277.16V212.668Z" fill="#263238"/>
<path opacity="0.3" d="M277.16 212.668H205.891V237.448H277.16V212.668Z" fill="white"/>
<path d="M125.639 219.25V206.943H78.4382V237.448H143.221V219.25H125.639Z" fill="#263238"/>
<path opacity="0.3" d="M125.639 219.25V206.943H78.4382V237.448H143.221V219.25H125.639Z" fill="white"/>
<path d="M249.312 261.589C261.41 261.589 271.218 251.781 271.218 239.683C271.218 227.584 261.41 217.777 249.312 217.777C237.213 217.777 227.406 227.584 227.406 239.683C227.406 251.781 237.213 261.589 249.312 261.589Z" fill="#263238"/>
<path opacity="0.5" d="M258.363 248.727C263.358 243.731 263.358 235.631 258.363 230.636C253.367 225.64 245.267 225.64 240.271 230.636C235.275 235.631 235.275 243.731 240.271 248.727C245.267 253.723 253.367 253.723 258.363 248.727Z" fill="white"/>
<g opacity="0.5">
<path d="M241.272 237.999C241.477 236.965 241.879 235.98 242.455 235.097C242.585 234.907 242.65 234.679 242.64 234.449C242.629 234.218 242.544 233.997 242.397 233.82C242.291 233.691 242.156 233.589 242.004 233.522C241.851 233.454 241.685 233.424 241.518 233.432C241.352 233.441 241.19 233.488 241.045 233.57C240.9 233.653 240.776 233.768 240.684 233.907C239.954 235.009 239.441 236.24 239.175 237.535C239.142 237.699 239.149 237.868 239.193 238.029C239.238 238.19 239.32 238.339 239.432 238.463C239.544 238.587 239.683 238.683 239.839 238.744C239.994 238.804 240.162 238.828 240.329 238.812C240.551 238.793 240.762 238.704 240.931 238.558C241.1 238.412 241.22 238.217 241.272 237.999Z" fill="white"/>
<path d="M244.798 232.826C245.668 232.248 246.641 231.844 247.664 231.636C247.89 231.592 248.095 231.476 248.249 231.306C248.403 231.136 248.498 230.921 248.521 230.693C248.537 230.526 248.513 230.359 248.453 230.203C248.392 230.048 248.296 229.909 248.171 229.797C248.047 229.686 247.899 229.605 247.737 229.561C247.576 229.518 247.407 229.512 247.244 229.546C245.949 229.809 244.717 230.319 243.616 231.048C243.477 231.14 243.361 231.264 243.279 231.409C243.196 231.554 243.149 231.716 243.141 231.882C243.132 232.049 243.163 232.215 243.23 232.368C243.298 232.52 243.4 232.655 243.528 232.761C243.706 232.904 243.925 232.988 244.153 233C244.381 233.011 244.607 232.951 244.798 232.826Z" fill="white"/>
<path d="M256.234 233.885C256.087 234.063 256 234.283 255.989 234.513C255.977 234.743 256.04 234.971 256.169 235.162C256.75 236.044 257.154 237.029 257.359 238.065C257.403 238.29 257.518 238.495 257.688 238.649C257.858 238.803 258.074 238.899 258.302 238.921C258.468 238.937 258.636 238.913 258.792 238.853C258.947 238.792 259.087 238.696 259.199 238.572C259.311 238.448 259.392 238.299 259.437 238.138C259.482 237.977 259.488 237.808 259.456 237.644C259.186 236.35 258.674 235.119 257.946 234.016C257.858 233.874 257.737 233.755 257.594 233.669C257.451 233.582 257.29 233.531 257.123 233.518C256.957 233.505 256.789 233.532 256.635 233.596C256.48 233.66 256.343 233.759 256.234 233.885Z" fill="white"/>
<path d="M250.966 231.636C251.989 231.845 252.962 232.249 253.832 232.826C254.024 232.953 254.251 233.016 254.48 233.006C254.71 232.995 254.93 232.912 255.109 232.768C255.238 232.662 255.34 232.527 255.408 232.375C255.475 232.222 255.506 232.056 255.497 231.89C255.489 231.723 255.441 231.561 255.359 231.416C255.276 231.271 255.161 231.148 255.022 231.055C253.92 230.327 252.688 229.817 251.394 229.553C251.231 229.52 251.061 229.525 250.9 229.569C250.739 229.612 250.591 229.693 250.466 229.804C250.342 229.916 250.246 230.055 250.185 230.211C250.124 230.366 250.101 230.534 250.117 230.7C250.14 230.926 250.235 231.139 250.388 231.307C250.541 231.476 250.743 231.591 250.966 231.636Z" fill="white"/>
<path d="M247.665 247.723C246.642 247.517 245.668 247.115 244.798 246.54C244.608 246.41 244.38 246.346 244.15 246.356C243.92 246.367 243.699 246.452 243.521 246.598C243.392 246.704 243.29 246.838 243.223 246.991C243.156 247.143 243.125 247.31 243.133 247.476C243.142 247.643 243.189 247.805 243.272 247.95C243.354 248.095 243.469 248.218 243.608 248.31C244.709 249.042 245.941 249.555 247.236 249.82C247.4 249.852 247.57 249.846 247.731 249.801C247.892 249.756 248.04 249.675 248.164 249.563C248.288 249.451 248.384 249.311 248.445 249.156C248.506 249 248.529 248.832 248.513 248.666C248.491 248.439 248.396 248.225 248.243 248.055C248.091 247.886 247.888 247.769 247.665 247.723Z" fill="white"/>
<path d="M257.359 241.33C257.155 242.366 256.751 243.352 256.169 244.232C256.04 244.424 255.977 244.652 255.989 244.882C256 245.112 256.087 245.332 256.234 245.51C256.34 245.638 256.474 245.74 256.627 245.808C256.779 245.875 256.946 245.906 257.112 245.897C257.279 245.889 257.441 245.842 257.586 245.759C257.731 245.677 257.854 245.561 257.946 245.422C258.675 244.32 259.187 243.088 259.456 241.794C259.488 241.63 259.481 241.461 259.437 241.299C259.392 241.138 259.311 240.989 259.199 240.865C259.087 240.74 258.948 240.643 258.792 240.582C258.636 240.52 258.469 240.496 258.302 240.51C258.078 240.53 257.867 240.62 257.698 240.767C257.528 240.915 257.41 241.111 257.359 241.33Z" fill="white"/>
<path d="M242.455 244.196C241.878 243.314 241.476 242.328 241.272 241.294C241.228 241.069 241.112 240.864 240.942 240.709C240.772 240.555 240.557 240.46 240.329 240.438C240.162 240.422 239.994 240.445 239.839 240.506C239.683 240.567 239.544 240.663 239.432 240.787C239.32 240.911 239.238 241.059 239.193 241.22C239.149 241.381 239.142 241.551 239.175 241.715C239.44 243.01 239.952 244.242 240.684 245.343C240.776 245.482 240.9 245.597 241.045 245.679C241.19 245.762 241.352 245.809 241.518 245.818C241.685 245.826 241.851 245.795 242.004 245.728C242.156 245.661 242.291 245.559 242.397 245.43C242.534 245.256 242.613 245.044 242.624 244.822C242.634 244.601 242.575 244.382 242.455 244.196Z" fill="white"/>
<path d="M253.832 246.54C252.962 247.114 251.988 247.516 250.966 247.723C250.741 247.768 250.537 247.884 250.383 248.054C250.229 248.223 250.133 248.438 250.11 248.666C250.094 248.832 250.118 249 250.178 249.156C250.239 249.311 250.335 249.451 250.459 249.563C250.583 249.675 250.732 249.756 250.893 249.801C251.054 249.846 251.223 249.852 251.387 249.82C252.682 249.553 253.913 249.041 255.015 248.31C255.154 248.218 255.269 248.094 255.352 247.95C255.434 247.805 255.481 247.643 255.49 247.476C255.498 247.31 255.468 247.143 255.4 246.991C255.333 246.838 255.231 246.704 255.102 246.598C254.925 246.453 254.705 246.369 254.477 246.359C254.248 246.349 254.022 246.412 253.832 246.54Z" fill="white"/>
</g>
<path d="M274.831 210.136H153.829V178.267L149.294 146.159H129.245V212.639L138.678 240.466H224.351C224.351 240.205 224.351 239.944 224.351 239.683C224.294 236.367 224.898 233.072 226.128 229.992C227.358 226.912 229.189 224.108 231.514 221.743C233.84 219.378 236.612 217.499 239.671 216.217C242.73 214.935 246.013 214.274 249.33 214.274C252.646 214.274 255.93 214.935 258.988 216.217C262.047 217.499 264.82 219.378 267.145 221.743C269.47 224.108 271.301 226.912 272.531 229.992C273.761 233.072 274.365 236.367 274.309 239.683C274.309 239.944 274.309 240.205 274.309 240.466H279.04L331.849 238.065V229.778L274.831 210.136Z" fill="#407BFF"/>
<g opacity="0.9">
<path d="M156.855 213.517H153.546V216.826H156.855V213.517Z" fill="white"/>
<path d="M160.163 216.725H156.855V220.033H160.163V216.725Z" fill="white"/>
<path d="M163.472 213.517H160.163V216.826H163.472V213.517Z" fill="white"/>
<path d="M166.781 216.725H163.472V220.033H166.781V216.725Z" fill="white"/>
<path d="M170.09 213.517H166.781V216.826H170.09V213.517Z" fill="white"/>
<path d="M173.398 216.725H170.09V220.033H173.398V216.725Z" fill="white"/>
<path d="M176.707 213.517H173.399V216.826H176.707V213.517Z" fill="white"/>
<path d="M180.016 216.725H176.707V220.033H180.016V216.725Z" fill="white"/>
<path d="M183.325 213.517H180.016V216.826H183.325V213.517Z" fill="white"/>
<path d="M186.634 216.725H183.325V220.033H186.634V216.725Z" fill="white"/>
<path d="M189.942 213.517H186.634V216.826H189.942V213.517Z" fill="white"/>
<path d="M193.251 216.725H189.942V220.033H193.251V216.725Z" fill="white"/>
<path d="M196.56 213.517H193.251V216.826H196.56V213.517Z" fill="white"/>
<path d="M199.869 216.725H196.56V220.033H199.869V216.725Z" fill="white"/>
<path d="M203.177 213.517H199.869V216.826H203.177V213.517Z" fill="white"/>
<path d="M206.486 216.725H203.177V220.033H206.486V216.725Z" fill="white"/>
<path d="M209.795 213.517H206.486V216.826H209.795V213.517Z" fill="white"/>
<path d="M213.104 216.725H209.795V220.033H213.104V216.725Z" fill="white"/>
<path d="M216.413 213.517H213.104V216.826H216.413V213.517Z" fill="white"/>
<path d="M219.721 216.725H216.413V220.033H219.721V216.725Z" fill="white"/>
<path d="M223.03 213.517H219.721V216.826H223.03V213.517Z" fill="white"/>
<path d="M226.332 216.725H223.023V220.033H226.332V216.725Z" fill="white"/>
<path d="M229.64 213.517H226.332V216.826H229.64V213.517Z" fill="white"/>
<path d="M267.684 213.517H264.375V216.826H267.684V213.517Z" fill="white"/>
<path d="M270.993 216.725H267.684V220.033H270.993V216.725Z" fill="white"/>
<path d="M274.302 213.517H270.993V216.826H274.302V213.517Z" fill="white"/>
<path d="M277.61 216.725H274.302V220.033H277.61V216.725Z" fill="white"/>
<path d="M280.919 213.517H277.61V216.826H280.919V213.517Z" fill="white"/>
<path d="M284.228 216.725H280.919V220.033H284.228V216.725Z" fill="white"/>
</g>
<path opacity="0.5" d="M177.992 223.182H184.921C185.414 223.182 185.886 223.378 186.235 223.726C186.583 224.075 186.779 224.547 186.779 225.04V231.643C186.779 232.136 186.583 232.608 186.235 232.956C185.886 233.305 185.414 233.501 184.921 233.501H177.992C177.791 233.501 177.591 233.461 177.406 233.384C177.22 233.307 177.051 233.194 176.909 233.052C176.767 232.91 176.654 232.741 176.577 232.555C176.5 232.37 176.461 232.171 176.461 231.969V224.713C176.461 224.512 176.5 224.313 176.577 224.128C176.654 223.942 176.767 223.773 176.909 223.631C177.051 223.489 177.22 223.376 177.406 223.299C177.591 223.222 177.791 223.182 177.992 223.182Z" fill="white"/>
<path opacity="0.2" d="M185.03 228.341C185.03 228.118 184.964 227.899 184.839 227.713C184.715 227.526 184.538 227.381 184.331 227.296C184.124 227.21 183.897 227.188 183.677 227.231C183.458 227.275 183.256 227.383 183.098 227.541C182.939 227.699 182.832 227.901 182.788 228.121C182.744 228.34 182.767 228.568 182.852 228.775C182.938 228.981 183.083 229.158 183.269 229.283C183.455 229.407 183.674 229.473 183.898 229.473C184.198 229.473 184.486 229.354 184.698 229.142C184.911 228.93 185.03 228.642 185.03 228.341Z" fill="black"/>
<path d="M108.094 261.589C120.192 261.589 130 251.781 130 239.683C130 227.584 120.192 217.777 108.094 217.777C95.9954 217.777 86.1877 227.584 86.1877 239.683C86.1877 251.781 95.9954 261.589 108.094 261.589Z" fill="#263238"/>
<path opacity="0.5" d="M117.139 248.732C122.135 243.736 122.135 235.636 117.139 230.641C112.144 225.645 104.044 225.645 99.0482 230.641C94.0524 235.636 94.0524 243.736 99.0482 248.732C104.044 253.728 112.144 253.728 117.139 248.732Z" fill="white"/>
<g opacity="0.5">
<path d="M100.054 237.999C100.256 236.964 100.658 235.979 101.237 235.097C101.366 234.906 101.431 234.679 101.42 234.449C101.41 234.219 101.325 233.998 101.179 233.82C101.073 233.691 100.938 233.589 100.786 233.522C100.633 233.454 100.467 233.424 100.301 233.432C100.134 233.441 99.9718 233.488 99.827 233.57C99.6821 233.653 99.5585 233.768 99.4663 233.907C98.7358 235.009 98.2234 236.24 97.957 237.535C97.9233 237.699 97.9285 237.868 97.9721 238.029C98.0156 238.19 98.0965 238.339 98.208 238.463C98.3195 238.587 98.4586 238.683 98.6142 238.744C98.7697 238.805 98.9373 238.828 99.1035 238.812C99.3269 238.793 99.5388 238.704 99.7093 238.558C99.8797 238.413 100 238.217 100.054 237.999Z" fill="white"/>
<path d="M103.58 232.826C104.45 232.248 105.423 231.844 106.447 231.636C106.671 231.591 106.876 231.475 107.03 231.305C107.184 231.135 107.279 230.921 107.303 230.693C107.317 230.526 107.293 230.358 107.232 230.203C107.17 230.047 107.073 229.908 106.948 229.797C106.823 229.686 106.674 229.605 106.513 229.562C106.352 229.518 106.182 229.513 106.018 229.546C104.724 229.809 103.492 230.319 102.39 231.048C102.252 231.14 102.136 231.264 102.054 231.409C101.971 231.554 101.924 231.716 101.915 231.882C101.907 232.049 101.938 232.215 102.005 232.368C102.072 232.52 102.175 232.655 102.303 232.761C102.482 232.906 102.702 232.99 102.931 233.002C103.161 233.014 103.388 232.952 103.58 232.826Z" fill="white"/>
<path d="M115.016 233.885C114.872 234.064 114.789 234.285 114.778 234.514C114.768 234.744 114.831 234.971 114.958 235.162C115.539 236.043 115.943 237.029 116.148 238.065C116.192 238.29 116.308 238.495 116.478 238.649C116.648 238.803 116.863 238.899 117.091 238.921C117.258 238.937 117.425 238.913 117.581 238.853C117.736 238.792 117.875 238.696 117.987 238.572C118.098 238.447 118.179 238.299 118.223 238.138C118.266 237.976 118.271 237.807 118.238 237.644C117.974 236.349 117.464 235.118 116.736 234.016C116.647 233.873 116.526 233.753 116.383 233.665C116.239 233.578 116.077 233.526 115.909 233.513C115.741 233.5 115.573 233.527 115.418 233.592C115.263 233.657 115.125 233.757 115.016 233.885Z" fill="white"/>
<path d="M109.748 231.636C110.771 231.845 111.744 232.249 112.614 232.826C112.806 232.953 113.033 233.016 113.262 233.006C113.492 232.995 113.712 232.912 113.891 232.768C114.02 232.662 114.122 232.527 114.19 232.375C114.257 232.222 114.288 232.056 114.279 231.89C114.271 231.723 114.223 231.561 114.141 231.416C114.058 231.271 113.943 231.148 113.804 231.055C112.702 230.327 111.471 229.817 110.176 229.553C110.013 229.52 109.844 229.525 109.682 229.569C109.521 229.612 109.373 229.693 109.248 229.804C109.124 229.916 109.028 230.055 108.967 230.211C108.907 230.366 108.883 230.534 108.899 230.7C108.922 230.926 109.017 231.139 109.17 231.307C109.323 231.476 109.525 231.591 109.748 231.636Z" fill="white"/>
<path d="M106.447 247.723C105.424 247.517 104.45 247.115 103.58 246.54C103.39 246.41 103.162 246.346 102.932 246.356C102.702 246.367 102.481 246.452 102.303 246.598C102.175 246.704 102.072 246.838 102.005 246.991C101.938 247.143 101.907 247.31 101.915 247.476C101.924 247.643 101.971 247.805 102.054 247.95C102.136 248.095 102.252 248.218 102.39 248.31C103.492 249.042 104.723 249.554 106.018 249.82C106.183 249.852 106.352 249.845 106.514 249.801C106.675 249.756 106.824 249.675 106.948 249.563C107.073 249.451 107.169 249.312 107.231 249.156C107.293 249 107.317 248.833 107.303 248.666C107.278 248.438 107.182 248.224 107.028 248.055C106.875 247.885 106.671 247.769 106.447 247.723Z" fill="white"/>
<path d="M116.141 241.33C115.937 242.366 115.533 243.352 114.951 244.232C114.823 244.424 114.76 244.651 114.771 244.88C114.781 245.11 114.865 245.33 115.009 245.509C115.115 245.638 115.249 245.74 115.402 245.808C115.554 245.875 115.72 245.906 115.887 245.897C116.053 245.889 116.216 245.842 116.361 245.759C116.505 245.677 116.629 245.561 116.721 245.422C117.45 244.321 117.96 243.089 118.223 241.794C118.257 241.631 118.251 241.461 118.208 241.3C118.164 241.138 118.083 240.989 117.972 240.865C117.861 240.74 117.722 240.643 117.566 240.581C117.411 240.52 117.243 240.495 117.077 240.51C116.855 240.532 116.645 240.622 116.477 240.769C116.309 240.916 116.191 241.113 116.141 241.33Z" fill="white"/>
<path d="M101.237 244.196C100.657 243.315 100.255 242.329 100.054 241.294C100.008 241.068 99.8914 240.863 99.7202 240.708C99.549 240.554 99.3328 240.459 99.1035 240.437C98.9377 240.423 98.7708 240.447 98.6161 240.509C98.4613 240.57 98.3228 240.666 98.2117 240.79C98.1005 240.914 98.0196 241.062 97.9754 241.222C97.9312 241.383 97.925 241.551 97.9571 241.714C98.2221 243.01 98.7345 244.241 99.4663 245.342C99.5586 245.481 99.6821 245.597 99.827 245.679C99.9719 245.762 100.134 245.809 100.301 245.818C100.467 245.826 100.633 245.795 100.786 245.728C100.938 245.661 101.073 245.558 101.179 245.43C101.315 245.255 101.394 245.043 101.404 244.822C101.415 244.601 101.356 244.382 101.237 244.196Z" fill="white"/>
<path d="M112.614 246.54C111.744 247.114 110.771 247.516 109.748 247.723C109.523 247.768 109.319 247.884 109.165 248.054C109.011 248.223 108.915 248.438 108.892 248.666C108.876 248.832 108.9 249 108.96 249.156C109.021 249.311 109.117 249.451 109.241 249.563C109.365 249.675 109.514 249.756 109.675 249.801C109.836 249.846 110.005 249.852 110.169 249.82C111.464 249.553 112.695 249.041 113.797 248.31C113.936 248.218 114.051 248.094 114.134 247.95C114.216 247.805 114.264 247.643 114.272 247.476C114.28 247.31 114.25 247.143 114.182 246.991C114.115 246.838 114.013 246.704 113.884 246.598C113.707 246.453 113.487 246.369 113.259 246.359C113.03 246.349 112.804 246.412 112.614 246.54Z" fill="white"/>
</g>
<path d="M53.753 184.783H52.4324V191.807H53.753V184.783Z" fill="#263238"/>
<path opacity="0.6" d="M53.753 184.783H52.4324V191.807H53.753V184.783Z" fill="black"/>
<path d="M87.2978 221.586L95.6133 215.172L103.856 213.517H127.126V153.103C127.126 151.265 126.397 149.502 125.097 148.201C123.798 146.9 122.035 146.168 120.197 146.167H79.3452C76.897 146.168 74.5099 146.931 72.5144 148.349C70.5188 149.768 69.0136 151.771 68.2071 154.083L58.854 180.829C57.5272 184.633 56.8502 188.634 56.8513 192.663V237.448H76.3774L87.2978 221.586Z" fill="#407BFF"/>
<path d="M56.8804 200.362H57.323C57.962 200.362 58.5747 200.616 59.0265 201.068C59.4783 201.519 59.7321 202.132 59.7321 202.771V211.108C59.7321 211.747 59.4783 212.36 59.0265 212.812C58.5747 213.263 57.962 213.517 57.323 213.517H56.8659C56.3232 213.517 55.8028 213.302 55.419 212.918C55.0353 212.534 54.8197 212.014 54.8197 211.471V202.401C54.8197 201.858 55.0353 201.338 55.419 200.954C55.8028 200.57 56.3232 200.355 56.8659 200.355L56.8804 200.362Z" fill="#407BFF"/>
<path opacity="0.8" d="M56.8804 200.362H57.323C57.962 200.362 58.5747 200.616 59.0265 201.068C59.4783 201.519 59.7321 202.132 59.7321 202.771V211.108C59.7321 211.747 59.4783 212.36 59.0265 212.812C58.5747 213.263 57.962 213.517 57.323 213.517H56.8659C56.3232 213.517 55.8028 213.302 55.419 212.918C55.0353 212.534 54.8197 212.014 54.8197 211.471V202.401C54.8197 201.858 55.0353 201.338 55.419 200.954C55.8028 200.57 56.3232 200.355 56.8659 200.355L56.8804 200.362Z" fill="white"/>
<path d="M112.07 194.601H111.976C111.291 194.601 110.735 195.156 110.735 195.842V202.365C110.735 203.05 111.291 203.606 111.976 203.606H112.07C112.755 203.606 113.311 203.05 113.311 202.365V195.842C113.311 195.156 112.755 194.601 112.07 194.601Z" fill="#263238"/>
<path d="M56.757 195.435L52.7662 193.657C52.5452 193.55 52.3596 193.381 52.2311 193.172C52.1025 192.962 52.0365 192.72 52.0406 192.475V191.459C52.0406 191.116 52.1767 190.788 52.4189 190.546C52.6611 190.303 52.9896 190.167 53.3322 190.167H57.323C57.7079 190.167 58.077 190.32 58.3492 190.592C58.6213 190.864 58.7742 191.234 58.7742 191.618V194.158C58.7647 194.393 58.6985 194.621 58.5811 194.825C58.4638 195.028 58.2988 195.2 58.1005 195.326C57.9021 195.451 57.6762 195.527 57.4423 195.546C57.2083 195.565 56.9731 195.527 56.757 195.435Z" fill="#407BFF"/>
<path d="M109.857 179.022H111.461C112.615 179.022 113.723 178.563 114.539 177.747C115.356 176.93 115.814 175.823 115.814 174.668V153.103C115.815 152.887 115.774 152.673 115.692 152.473C115.61 152.274 115.489 152.092 115.337 151.939C115.184 151.786 115.003 151.664 114.804 151.582C114.604 151.499 114.39 151.456 114.174 151.456H79.3452C77.9942 151.455 76.6762 151.874 75.5728 152.653C74.4695 153.433 73.6352 154.536 73.1848 155.81L63.8535 182.57C63.7132 182.965 63.5945 183.367 63.4979 183.775C63.2555 184.736 63.2778 185.745 63.5624 186.695C63.8471 187.645 64.3835 188.5 65.1148 189.169C65.8461 189.839 66.745 190.298 67.7161 190.498C68.6872 190.698 69.6943 190.631 70.6307 190.305L96.1576 181.351C100.56 179.808 105.192 179.02 109.857 179.022Z" fill="#263238"/>
<path opacity="0.5" d="M109.857 179.022H111.461C112.615 179.022 113.723 178.563 114.539 177.747C115.356 176.93 115.814 175.823 115.814 174.668V153.103C115.815 152.887 115.774 152.673 115.692 152.473C115.61 152.274 115.489 152.092 115.337 151.939C115.184 151.786 115.003 151.664 114.804 151.582C114.604 151.499 114.39 151.456 114.174 151.456H79.3452C77.9942 151.455 76.6762 151.874 75.5728 152.653C74.4695 153.433 73.6352 154.536 73.1848 155.81L63.8535 182.57C63.7132 182.965 63.5945 183.367 63.4979 183.775C63.2555 184.736 63.2778 185.745 63.5624 186.695C63.8471 187.645 64.3835 188.5 65.1148 189.169C65.8461 189.839 66.745 190.298 67.7161 190.498C68.6872 190.698 69.6943 190.631 70.6307 190.305L96.1576 181.351C100.56 179.808 105.192 179.02 109.857 179.022Z" fill="white"/>
<path d="M126.292 210.499H104.125C99.9979 210.504 95.9456 211.599 92.378 213.674C88.8103 215.748 85.8539 218.728 83.8077 222.312L75.1584 237.448H82.117L89.0538 225.308C90.5765 222.648 92.7746 220.436 95.4259 218.897C98.0773 217.358 101.088 216.546 104.154 216.543H126.321C126.743 216.543 127.147 216.376 127.445 216.078C127.743 215.78 127.91 215.375 127.91 214.954V212.088C127.91 211.877 127.868 211.668 127.786 211.473C127.705 211.278 127.585 211.102 127.434 210.954C127.284 210.806 127.105 210.689 126.909 210.611C126.713 210.533 126.503 210.495 126.292 210.499Z" fill="#407BFF"/>
<path opacity="0.4" d="M126.292 210.499H104.125C99.9979 210.504 95.9456 211.599 92.378 213.674C88.8103 215.748 85.8539 218.728 83.8077 222.312L75.1584 237.448H82.117L89.0538 225.308C90.5765 222.648 92.7746 220.436 95.4259 218.897C98.0773 217.358 101.088 216.546 104.154 216.543H126.321C126.743 216.543 127.147 216.376 127.445 216.078C127.743 215.78 127.91 215.375 127.91 214.954V212.088C127.91 211.877 127.868 211.668 127.786 211.473C127.705 211.278 127.585 211.102 127.434 210.954C127.284 210.806 127.105 210.689 126.909 210.611C126.713 210.533 126.503 210.495 126.292 210.499Z" fill="white"/>
<path d="M60.8785 225.483H55.1535C54.352 225.483 53.7023 226.132 53.7023 226.934V232.659C53.7023 233.46 54.352 234.11 55.1535 234.11H60.8785C61.68 234.11 62.3297 233.46 62.3297 232.659V226.934C62.3297 226.132 61.68 225.483 60.8785 225.483Z" fill="#263238"/>
<path opacity="0.7" d="M60.8785 225.483H55.1535C54.352 225.483 53.7023 226.132 53.7023 226.934V232.659C53.7023 233.46 54.352 234.11 55.1535 234.11H60.8785C61.68 234.11 62.3297 233.46 62.3297 232.659V226.934C62.3297 226.132 61.68 225.483 60.8785 225.483Z" fill="white"/>
<path d="M78.8156 240.467H54.1449C53.7215 240.467 53.3155 240.298 53.0161 239.999C52.7168 239.7 52.5486 239.294 52.5486 238.87V234.604C52.5486 234.18 52.7168 233.774 53.0161 233.475C53.3155 233.176 53.7215 233.007 54.1449 233.007H83.1185C83.3095 233.007 83.4973 233.057 83.6624 233.153C83.8276 233.249 83.9642 233.387 84.0581 233.553C84.152 233.72 84.1998 233.908 84.1966 234.099C84.1934 234.29 84.1394 234.477 84.04 234.64L81.3842 238.994C81.1171 239.438 80.7409 239.806 80.2914 240.064C79.8418 240.322 79.3338 240.46 78.8156 240.467Z" fill="#263238"/>
<path opacity="0.6" d="M78.8156 240.467H54.1449C53.7215 240.467 53.3155 240.298 53.0161 239.999C52.7168 239.7 52.5486 239.294 52.5486 238.87V234.604C52.5486 234.18 52.7168 233.774 53.0161 233.475C53.3155 233.176 53.7215 233.007 54.1449 233.007H83.1185C83.3095 233.007 83.4973 233.057 83.6624 233.153C83.8276 233.249 83.9642 233.387 84.0581 233.553C84.152 233.72 84.1998 233.908 84.1966 234.099C84.1934 234.29 84.1394 234.477 84.04 234.64L81.3842 238.994C81.1171 239.438 80.7409 239.806 80.2914 240.064C79.8418 240.322 79.3338 240.46 78.8156 240.467Z" fill="white"/>
<path d="M52.9258 171.469H53.0927C53.4436 171.469 53.7803 171.607 54.0291 171.855C54.2779 172.102 54.4187 172.438 54.4206 172.789V185.248C54.4206 185.6 54.2807 185.938 54.0317 186.187C53.7826 186.436 53.4449 186.576 53.0927 186.576H52.9258C52.2196 186.576 51.5422 186.295 51.0428 185.796C50.5434 185.296 50.2629 184.619 50.2629 183.913V174.146C50.2609 173.795 50.3284 173.447 50.4614 173.122C50.5944 172.798 50.7902 172.502 51.0377 172.254C51.2852 172.005 51.5794 171.807 51.9034 171.673C52.2274 171.538 52.5749 171.469 52.9258 171.469Z" fill="#263238"/>
<g opacity="0.3">
<path d="M62.7578 192.112V224.503C62.7578 224.653 62.8174 224.797 62.9236 224.903C63.0297 225.009 63.1737 225.069 63.3238 225.069C63.4739 225.069 63.6178 225.009 63.724 224.903C63.8301 224.797 63.8898 224.653 63.8898 224.503V192.112C63.8898 191.962 63.8301 191.818 63.724 191.712C63.6178 191.606 63.4739 191.546 63.3238 191.546C63.1737 191.546 63.0297 191.606 62.9236 191.712C62.8174 191.818 62.7578 191.962 62.7578 192.112Z" fill="black"/>
</g>
<g opacity="0.3">
<path d="M115.227 180.85V207.698C115.242 207.838 115.309 207.967 115.414 208.061C115.519 208.155 115.655 208.207 115.796 208.207C115.937 208.207 116.073 208.155 116.178 208.061C116.283 207.967 116.35 207.838 116.366 207.698V180.85C116.35 180.71 116.283 180.581 116.178 180.487C116.073 180.393 115.937 180.342 115.796 180.342C115.655 180.342 115.519 180.393 115.414 180.487C115.309 180.581 115.242 180.71 115.227 180.85Z" fill="black"/>
</g>
<g opacity="0.2">
<path d="M88.5823 151.449H84.9687L70.7976 190.254L74.9336 188.803L88.5823 151.449Z" fill="white"/>
<path d="M102.405 151.449H91.4267L78.1989 187.657L90.7954 183.238L102.405 151.449Z" fill="white"/>
</g>
<path d="M158.763 253.07L160.541 259.499H163.421L162.348 252.272L158.763 253.07Z" fill="#FFC3BD"/>
<path d="M163.494 258.904L160.236 258.97C160.167 258.973 160.101 258.999 160.049 259.044C159.996 259.088 159.96 259.149 159.946 259.216L159.315 262.293C159.289 262.424 159.315 262.559 159.389 262.671C159.462 262.782 159.576 262.86 159.706 262.888H159.815C161.172 262.837 162.377 262.743 164.067 262.714C166.063 262.677 165.562 262.924 167.906 262.917C169.321 262.917 169.553 261.299 168.951 261.226C167.194 261.173 165.53 260.427 164.321 259.151C164.086 258.967 163.791 258.879 163.494 258.904Z" fill="#263238"/>
<path opacity="0.2" d="M163.153 257.685L162.348 252.272L158.763 253.07L160.091 257.888L163.153 257.685Z" fill="black"/>
<path d="M155.636 196.596L163.421 255.537L159.068 255.951C159.068 255.951 153.829 237.274 152.871 230.896C152.69 229.749 152.356 227.413 152.146 226.274C151.906 224.96 151.289 222.471 150.897 221.194C150.172 218.756 148.068 211.399 148.068 211.399L144.933 198.679L155.636 196.596Z" fill="#263238"/>
<path opacity="0.5" d="M146.812 201.719L146.283 204.164L148.068 211.42C148.068 211.42 149.004 214.736 149.845 217.653C150.23 205.129 148.162 201.726 148.162 201.726L146.812 201.719Z" fill="black"/>
<path d="M158.095 254.703L158.676 256.909L163.973 256.321L163.842 253.999L158.095 254.703Z" fill="#407BFF"/>
<path d="M141.943 252.766L142.698 259.39L145.55 259.419L145.608 252.533L141.943 252.766Z" fill="#FFC3BD"/>
<path opacity="0.2" d="M145.608 252.533L141.943 252.766L142.531 257.939L145.564 257.917L145.608 252.533Z" fill="black"/>
<path d="M149.374 197.249L146.109 256.285L141.719 256.328C141.719 256.328 139.948 237.027 140.115 230.576C140.115 229.415 140.224 227.057 140.224 225.896C140.224 224.561 140.057 222 139.897 220.672C139.593 218.147 138.729 210.158 138.504 207.611C138.207 204.353 138.047 197.452 138.047 197.452L149.374 197.249Z" fill="#263238"/>
<path d="M140.87 254.478L141.247 256.727L146.566 256.648L146.798 254.326L140.87 254.478Z" fill="#407BFF"/>
<path d="M145.688 258.904L142.422 258.969C142.354 258.974 142.289 259 142.236 259.045C142.184 259.089 142.148 259.149 142.132 259.216L141.508 262.293C141.494 262.358 141.494 262.424 141.506 262.49C141.518 262.555 141.543 262.617 141.58 262.672C141.616 262.727 141.663 262.775 141.718 262.812C141.773 262.849 141.835 262.875 141.9 262.888H142.002C143.358 262.837 144.57 262.743 146.261 262.714C148.256 262.677 147.756 262.924 150.099 262.917C151.514 262.917 151.739 261.299 151.144 261.226C149.386 261.171 147.72 260.425 146.508 259.151C146.276 258.967 145.982 258.879 145.688 258.904Z" fill="#263238"/>
<path d="M162.536 173.094L170.961 170.953L172.673 169.655C172.817 169.544 172.992 169.482 173.174 169.48H174.436C174.522 169.483 174.608 169.471 174.69 169.444L175.104 169.306C175.242 169.262 175.388 169.255 175.53 169.285C175.671 169.314 175.803 169.38 175.911 169.476C176.019 169.572 176.101 169.694 176.148 169.831C176.194 169.968 176.205 170.115 176.178 170.257L175.88 171.824C175.847 171.99 175.764 172.143 175.642 172.261C175.52 172.379 175.365 172.457 175.198 172.484L171.49 173.094L163.001 176.192L162.536 173.094Z" fill="#FFC3BD"/>
<path d="M151.5 170.518L161.753 172.535L164.604 172.114L165.09 175.8L162.101 176.526L152.233 176.591C152.233 176.591 149.802 172.891 151.5 170.518Z" fill="#407BFF"/>
<path opacity="0.5" d="M151.5 170.518L161.753 172.535L164.604 172.114L165.09 175.8L162.101 176.526L152.233 176.591C152.233 176.591 149.802 172.891 151.5 170.518Z" fill="black"/>
<path d="M163.908 171.715L164.815 176.504L166.208 175.829L165.439 171.715H163.908Z" fill="#407BFF"/>
<path opacity="0.5" d="M163.908 171.715L164.815 176.504L166.208 175.829L165.439 171.715H163.908Z" fill="white"/>
<path opacity="0.2" d="M152.624 172.245L151.899 172.687L152.32 174.139L152.944 176.599H158.023C153.923 176.25 152.624 172.245 152.624 172.245Z" fill="black"/>
<path d="M143.221 181.235L149.94 180.466L149.432 170.859L139.926 172.383L143.221 181.235Z" fill="#407BFF"/>
<path opacity="0.4" d="M143.221 181.235L149.94 180.466L149.432 170.859L139.926 172.383L143.221 181.235Z" fill="black"/>
<path d="M151.5 170.518L147.197 171.243C147.538 173.379 147.406 175.564 146.812 177.643C146.021 175.191 142.836 173.065 141.341 172.172L136.487 172.949L137.691 199.121C137.706 199.449 137.835 199.761 138.057 200.002C138.278 200.244 138.578 200.4 138.903 200.442C141.806 200.812 149.649 201.421 155.324 198.323C155.555 198.195 155.746 198.005 155.874 197.774C156.002 197.543 156.063 197.281 156.049 197.017C155.824 192.642 154.656 172.941 151.5 170.518Z" fill="#407BFF"/>
<path opacity="0.5" d="M151.5 170.518L147.197 171.243C147.538 173.379 147.406 175.564 146.812 177.643C146.021 175.191 142.836 173.065 141.341 172.172L136.487 172.949L137.691 199.121C137.706 199.449 137.835 199.761 138.057 200.002C138.278 200.244 138.578 200.4 138.903 200.442C141.806 200.812 149.649 201.421 155.324 198.323C155.555 198.195 155.746 198.005 155.874 197.774C156.002 197.543 156.063 197.281 156.049 197.017C155.824 192.642 154.656 172.941 151.5 170.518Z" fill="white"/>
<path opacity="0.8" d="M136.821 180.154L136.944 182.918C142.909 182.95 148.834 181.931 154.446 179.907C154.279 178.826 154.097 177.781 153.894 176.809C148.448 178.933 142.666 180.066 136.821 180.154Z" fill="white"/>
<path opacity="0.2" d="M137.038 184.885C140.296 179.472 138.33 176.178 138.33 176.178L137.778 176.381L136.705 177.672L137.038 184.885Z" fill="black"/>
<path d="M142.444 172.615C143.279 173.239 144.577 173.979 145.855 173.725C146.065 173.699 146.268 173.629 146.451 173.52C146.633 173.41 146.791 173.265 146.913 173.091C147.036 172.918 147.122 172.721 147.164 172.513C147.207 172.305 147.206 172.09 147.161 171.882C146 171.294 145.709 169.988 145.753 168.755L141.269 166.295C141.958 167.942 142.901 170.808 142.444 172.615Z" fill="#FFC3BD"/>
<path opacity="0.2" d="M143.097 167.311L145.753 168.762C145.742 169.143 145.764 169.524 145.818 169.901C145.305 169.917 144.796 169.808 144.336 169.581C143.875 169.355 143.477 169.019 143.177 168.602C142.843 168.058 142.894 167.42 143.097 167.311Z" fill="black"/>
<path d="M145.296 163.342C143.264 162.289 142.038 159.939 142.168 159.387C142.299 158.836 145.325 157.711 145.76 157.936C147.937 158.872 146.791 161.861 146.791 161.861L147.581 162.776L145.296 163.342Z" fill="#263238"/>
<path d="M139.926 163.574C140.833 166.186 141.232 167.761 142.959 168.74C145.55 170.235 148.488 168.087 148.38 165.265C148.278 162.703 146.805 158.872 143.91 158.545C143.271 158.469 142.624 158.558 142.029 158.804C141.434 159.049 140.912 159.442 140.513 159.946C140.113 160.451 139.85 161.049 139.747 161.684C139.644 162.319 139.706 162.97 139.926 163.574Z" fill="#FFC3BD"/>
<path d="M139.89 165.482C137.974 164.241 136.407 162.166 136.617 161.651C137.176 160.28 139.382 159.169 140.877 159.786C143.054 160.679 141.53 164.14 141.53 164.14L142.255 165.141L139.89 165.482Z" fill="#263238"/>
<path d="M139.317 166.418C139.572 166.648 139.87 166.826 140.193 166.94C140.517 167.055 140.86 167.104 141.203 167.086C142.125 167.035 142.285 166.142 141.784 165.424C141.283 164.706 140.333 164.045 139.498 164.445C139.323 164.535 139.173 164.668 139.062 164.832C138.952 164.996 138.885 165.185 138.867 165.382C138.848 165.578 138.88 165.776 138.959 165.958C139.038 166.139 139.161 166.297 139.317 166.418Z" fill="#FFC3BD"/>
<path d="M144.294 163.175C144.36 163.392 144.519 163.538 144.665 163.494C144.81 163.451 144.868 163.247 144.81 163.03C144.752 162.812 144.585 162.674 144.44 162.71C144.294 162.747 144.236 162.957 144.294 163.175Z" fill="#263238"/>
<path d="M146.74 162.493C146.805 162.703 146.965 162.848 147.11 162.805C147.255 162.761 147.313 162.558 147.255 162.347C147.197 162.137 147.03 161.985 146.885 162.028C146.74 162.072 146.682 162.275 146.74 162.493Z" fill="#263238"/>
<path d="M145.847 162.826C146.294 163.413 146.819 163.935 147.407 164.379C147.288 164.528 147.138 164.649 146.968 164.734C146.798 164.819 146.611 164.866 146.421 164.873L145.847 162.826Z" fill="#ED847E"/>
<path d="M143.17 162.398H143.104C143.074 162.384 143.05 162.359 143.037 162.329C143.023 162.298 143.022 162.263 143.032 162.232C143.105 162.035 143.223 161.858 143.377 161.716C143.53 161.573 143.716 161.469 143.917 161.412C143.952 161.404 143.988 161.41 144.018 161.429C144.048 161.448 144.069 161.479 144.077 161.513C144.084 161.548 144.078 161.584 144.059 161.614C144.04 161.644 144.01 161.665 143.975 161.673C143.81 161.713 143.657 161.794 143.53 161.908C143.403 162.022 143.307 162.166 143.25 162.326C143.233 162.359 143.204 162.385 143.17 162.398Z" fill="#263238"/>
<path d="M147.415 161.237C147.393 161.24 147.372 161.237 147.351 161.229C147.331 161.222 147.313 161.21 147.298 161.194C147.194 161.066 147.06 160.965 146.909 160.9C146.757 160.834 146.592 160.806 146.428 160.817C146.411 160.82 146.393 160.819 146.376 160.815C146.359 160.812 146.343 160.804 146.329 160.794C146.314 160.784 146.302 160.771 146.293 160.756C146.284 160.741 146.278 160.725 146.275 160.708C146.273 160.673 146.283 160.638 146.305 160.61C146.326 160.582 146.357 160.562 146.391 160.555C146.6 160.537 146.81 160.57 147.004 160.651C147.197 160.732 147.368 160.858 147.502 161.02C147.514 161.031 147.524 161.045 147.531 161.061C147.538 161.076 147.541 161.093 147.541 161.11C147.541 161.127 147.538 161.144 147.531 161.16C147.524 161.176 147.514 161.19 147.502 161.201C147.49 161.213 147.477 161.222 147.462 161.228C147.447 161.235 147.431 161.238 147.415 161.237Z" fill="#263238"/>
<path d="M146.196 166.164C146.327 166.167 146.458 166.154 146.587 166.128C146.596 166.128 146.605 166.127 146.614 166.123C146.622 166.119 146.629 166.113 146.635 166.106C146.64 166.099 146.644 166.091 146.646 166.082C146.648 166.073 146.648 166.064 146.645 166.055C146.644 166.047 146.64 166.039 146.635 166.031C146.63 166.024 146.624 166.018 146.616 166.013C146.609 166.008 146.601 166.005 146.592 166.004C146.583 166.002 146.574 166.003 146.566 166.005C146.28 166.059 145.986 166.046 145.706 165.967C145.426 165.888 145.169 165.744 144.955 165.548C144.94 165.536 144.922 165.529 144.904 165.529C144.885 165.529 144.867 165.536 144.853 165.548C144.847 165.554 144.842 165.561 144.838 165.569C144.835 165.577 144.833 165.586 144.833 165.595C144.833 165.604 144.835 165.612 144.838 165.62C144.842 165.628 144.847 165.636 144.853 165.642C145.216 165.983 145.697 166.171 146.196 166.164Z" fill="#263238"/>
<path d="M138.765 164.713C138.765 164.713 136.552 163.262 136.414 161.811C136.409 160.846 136.625 159.892 137.047 159.024C137.468 158.156 138.083 157.397 138.845 156.804C140.499 155.687 143.859 154.751 146.783 158.56L142.038 160.011L140.151 161.963L138.765 164.713Z" fill="#407BFF"/>
<path opacity="0.3" d="M138.765 164.713C138.765 164.713 136.552 163.262 136.414 161.811C136.409 160.846 136.625 159.892 137.047 159.024C137.468 158.156 138.083 157.397 138.845 156.804C140.499 155.687 143.859 154.751 146.783 158.56L142.038 160.011L140.151 161.963L138.765 164.713Z" fill="black"/>
<path d="M138.874 164.887C138.874 164.887 141.051 158.923 146.95 158.995C146.95 158.995 148.554 154.605 145.426 155.048C142.299 155.491 140.47 161.216 140.47 161.216C140.47 161.216 137.626 164.292 138.874 164.887Z" fill="#407BFF"/>
<path opacity="0.5" d="M138.874 164.887C138.874 164.887 141.051 158.923 146.95 158.995C146.95 158.995 148.554 154.605 145.426 155.048C142.299 155.491 140.47 161.216 140.47 161.216C140.47 161.216 137.626 164.292 138.874 164.887Z" fill="white"/>
<path opacity="0.8" d="M155.933 194.898C155.875 193.998 155.803 192.932 155.716 191.756C146.551 194.289 139.752 193.832 137.438 193.549L137.561 196.349C146.878 197.191 153.423 195.646 155.933 194.898Z" fill="white"/>
<path d="M139.716 184.631L147.168 185.516C147.168 185.516 145.659 192.62 148.162 195.602L142.248 195.668L139.716 184.631Z" fill="#263238"/>
<path opacity="0.7" d="M139.716 184.631L147.168 185.516C147.168 185.516 145.659 192.62 148.162 195.602L142.248 195.668L139.716 184.631Z" fill="white"/>
<path d="M146.408 184.825L139.987 184.066C139.358 183.992 138.788 184.441 138.714 185.07L137.575 194.705C137.501 195.333 137.951 195.903 138.579 195.978L145 196.736C145.629 196.811 146.199 196.361 146.273 195.732L147.412 186.098C147.486 185.469 147.036 184.899 146.408 184.825Z" fill="#263238"/>
<path opacity="0.5" d="M146.408 184.825L139.987 184.066C139.358 183.992 138.788 184.441 138.714 185.07L137.575 194.705C137.501 195.333 137.951 195.903 138.579 195.978L145 196.736C145.629 196.811 146.199 196.361 146.273 195.732L147.412 186.098C147.486 185.469 147.036 184.899 146.408 184.825Z" fill="white"/>
<path d="M143.475 183.927L144.135 183.201C144.17 183.163 144.194 183.115 144.203 183.063C144.213 183.012 144.208 182.959 144.189 182.91C144.171 182.861 144.138 182.818 144.097 182.786C144.055 182.755 144.006 182.735 143.953 182.73L142.901 182.606C142.849 182.6 142.796 182.607 142.748 182.629C142.7 182.651 142.659 182.685 142.629 182.729C142.6 182.773 142.583 182.824 142.581 182.877C142.579 182.929 142.592 182.982 142.618 183.027L143.09 183.898L141.196 183.673L141.087 184.609C141.065 184.812 141.123 185.015 141.249 185.176C141.375 185.336 141.56 185.44 141.762 185.465L144.396 185.756C144.599 185.778 144.802 185.72 144.963 185.594C145.123 185.467 145.227 185.283 145.252 185.081L145.361 184.145L143.475 183.927Z" fill="#263238"/>
<path d="M131.93 186.793L137.416 190.058L140.812 189.173C141.022 189.117 141.245 189.135 141.443 189.224C141.666 189.328 141.84 189.515 141.928 189.745C142.016 189.976 142.011 190.231 141.914 190.458L141.254 191.967C141.17 192.157 141.026 192.314 140.844 192.414C140.661 192.514 140.451 192.55 140.246 192.518L136.864 191.974L130.261 189.195L131.93 186.793Z" fill="#FFC3BD"/>
<path d="M136.487 172.927C136.487 172.927 127.417 184.5 127.555 186.655C127.693 188.811 131.799 190.131 131.799 190.131L133.606 187.563L132.061 186.031C132.061 186.031 135.689 182.251 136.893 180.952C138.221 179.479 139.999 177.411 136.487 172.927Z" fill="#407BFF"/>
<path opacity="0.5" d="M136.487 172.927C136.487 172.927 127.417 184.5 127.555 186.655C127.693 188.811 131.799 190.131 131.799 190.131L133.606 187.563L132.061 186.031C132.061 186.031 135.689 182.251 136.893 180.952C138.221 179.479 139.999 177.411 136.487 172.927Z" fill="black"/>
<path d="M133.505 186.757L131.067 190.378L132.286 190.791L134.303 187.838L133.505 186.757Z" fill="#407BFF"/>
<path opacity="0.5" d="M133.505 186.757L131.067 190.378L132.286 190.791L134.303 187.838L133.505 186.757Z" fill="white"/>
<path d="M149.795 200.195L147.56 178.296C147.547 178.113 147.465 177.941 147.33 177.816C147.195 177.691 147.018 177.621 146.834 177.622L149.2 200.311L149.795 200.195Z" fill="#407BFF"/>
</svg>
