<svg width="32" height="32" viewBox="0 0 32 32" fill="none" xmlns="http://www.w3.org/2000/svg">
<path d="M2.66658 12C2.66658 9.48529 2.66658 8.22929 3.44791 7.44796C4.22925 6.66663 5.48525 6.66663 7.99991 6.66663H23.9999C26.5146 6.66663 27.7706 6.66663 28.5519 7.44796C29.3332 8.22929 29.3332 9.48529 29.3332 12C29.3332 12.628 29.3332 12.9426 29.1386 13.1386C28.9426 13.3333 28.6266 13.3333 27.9999 13.3333H3.99991C3.37191 13.3333 3.05725 13.3333 2.86125 13.1386C2.66658 12.9426 2.66658 12.6266 2.66658 12ZM2.66658 24C2.66658 26.5146 2.66658 27.7706 3.44791 28.552C4.22925 29.3333 5.48525 29.3333 7.99991 29.3333H23.9999C26.5146 29.3333 27.7706 29.3333 28.5519 28.552C29.3332 27.7706 29.3332 26.5146 29.3332 24V17.3333C29.3332 16.7053 29.3332 16.3906 29.1386 16.1946C28.9426 16 28.6266 16 27.9999 16H3.99991C3.37191 16 3.05725 16 2.86125 16.1946C2.66658 16.3906 2.66658 16.7066 2.66658 17.3333V24Z" fill="#2B762A"/>
<path d="M9.33325 4V8M22.6666 4V8" stroke="#2B762A" stroke-width="2.66667" stroke-linecap="round"/>
</svg>
