<svg width="20" height="16" viewBox="0 0 20 16" fill="none" xmlns="http://www.w3.org/2000/svg">
<path d="M3.125 0C2.2962 0 1.50134 0.32924 0.915291 0.915291C0.32924 1.50134 0 2.2962 0 3.125V12.875C0 13.7038 0.32924 14.4987 0.915291 15.0847C1.50134 15.6708 2.2962 16 3.125 16H16.875C17.7038 16 18.4987 15.6708 19.0847 15.0847C19.6708 14.4987 20 13.7038 20 12.875V3.125C20 2.2962 19.6708 1.50134 19.0847 0.915291C18.4987 0.32924 17.7038 0 16.875 0H3.125ZM1.25 3.125C1.25 2.62772 1.44754 2.15081 1.79917 1.79917C2.15081 1.44754 2.62772 1.25 3.125 1.25H16.875C17.3723 1.25 17.8492 1.44754 18.2008 1.79917C18.5525 2.15081 18.75 2.62772 18.75 3.125V3.57L10.001 8.175L1.25 3.5315V3.125ZM1.25 4.947L9.707 9.434C9.7969 9.4817 9.8971 9.50673 9.99888 9.50691C10.1007 9.50708 10.2009 9.4824 10.291 9.435L18.75 4.9825V12.875C18.75 13.3723 18.5525 13.8492 18.2008 14.2008C17.8492 14.5525 17.3723 14.75 16.875 14.75H3.125C2.62772 14.75 2.15081 14.5525 1.79917 14.2008C1.44754 13.8492 1.25 13.3723 1.25 12.875V4.947Z" fill="#1B1B1B"/>
</svg>
