<svg width="150" height="150" viewBox="0 0 150 150" fill="none" xmlns="http://www.w3.org/2000/svg">
<circle cx="75" cy="75" r="74.5" fill="#1C2CBC" stroke="#FFFAFA"/>
<path opacity="0.5" d="M33.3333 91.667C33.3333 79.8837 33.3333 73.9878 36.9958 70.3295C40.6541 66.667 46.5499 66.667 58.3333 66.667H91.6666C103.45 66.667 109.346 66.667 113.004 70.3295C116.667 73.9878 116.667 79.8837 116.667 91.667C116.667 103.45 116.667 109.346 113.004 113.004C109.346 116.667 103.45 116.667 91.6666 116.667H58.3333C46.5499 116.667 40.6541 116.667 36.9958 113.004C33.3333 109.346 33.3333 103.45 33.3333 91.667Z" fill="#FFFAFA"/>
<path d="M53.125 58.333C53.125 52.5314 55.4297 46.9674 59.532 42.865C63.6344 38.7627 69.1984 36.458 75 36.458C80.8016 36.458 86.3656 38.7627 90.468 42.865C94.5703 46.9674 96.875 52.5314 96.875 58.333V66.683C99.2375 66.7038 101.308 66.758 103.125 66.8913V58.333C103.125 50.8738 100.162 43.7201 94.8874 38.4456C89.6129 33.1712 82.4592 30.208 75 30.208C67.5408 30.208 60.3871 33.1712 55.1126 38.4456C49.8382 43.7201 46.875 50.8738 46.875 58.333V66.8955C48.9555 66.7583 51.0399 66.6875 53.125 66.683V58.333Z" fill="#FFFAFA"/>
</svg>
