<svg width="45" height="33" viewBox="0 0 45 33" fill="none" xmlns="http://www.w3.org/2000/svg">
<path d="M-6.10352e-05 16.5C-6.10352e-05 10.725 -6.10352e-05 7.8375 1.124 5.63063C2.11268 3.69029 3.69023 2.11274 5.63056 1.12406C7.83744 1.22935e-07 10.7249 0 16.4999 0C22.2749 0 25.1624 1.22935e-07 27.3693 1.12406C29.3096 2.11274 30.8872 3.69029 31.8759 5.63063C32.9999 7.8375 32.9999 10.725 32.9999 16.5V28.875C32.9999 30.8199 32.9999 31.7914 32.3956 32.3957C31.7913 33 30.8199 33 28.8749 33H16.4999C10.7249 33 7.83744 33 5.63056 31.8759C3.69023 30.8873 2.11268 29.3097 1.124 27.3694C-6.10352e-05 25.1625 -6.10352e-05 22.275 -6.10352e-05 16.5Z" fill="#1C2CBC" fill-opacity="0.25"/>
<path d="M23.7186 13.4064H9.28113M23.7186 19.5939H13.4061" stroke="#1C2CBC" stroke-width="2.0625" stroke-linecap="round" stroke-linejoin="round"/>
<path d="M44.8798 17.3249C44.8798 15.3037 44.8798 14.2931 44.4864 13.5207C44.1404 12.8416 43.5883 12.2895 42.9092 11.9435C42.1368 11.55 41.1262 11.55 39.105 11.55C37.0838 11.55 36.0732 11.55 35.3008 11.9435C34.6217 12.2895 34.0696 12.8416 33.7236 13.5207C33.3301 14.2931 33.3301 15.3037 33.3301 17.3249V21.656C33.3301 22.3367 33.3301 22.6767 33.5416 22.8882C33.7531 23.0997 34.0931 23.0997 34.7738 23.0997H39.105C41.1262 23.0997 42.1368 23.0997 42.9092 22.7063C43.5883 22.3603 44.1404 21.8082 44.4864 21.1291C44.8798 20.3567 44.8798 19.3461 44.8798 17.3249Z" fill="#1C2CBC" fill-opacity="0.25"/>
<path d="M36.5786 16.2422H41.6315M36.5786 18.4078H40.1878" stroke="#1C2CBC" stroke-width="0.99" stroke-linecap="round" stroke-linejoin="round"/>
</svg>
