<svg width="32" height="32" viewBox="0 0 32 32" fill="none" xmlns="http://www.w3.org/2000/svg">
<path opacity="0.5" d="M19.4956 13.8662C20.988 13.8662 22.3908 14.4463 23.4456 15.5011L24.4687 16.5242C25.3019 16.1603 26.093 15.654 26.7786 14.9684C28.7351 13.0119 29.3996 10.259 28.7773 7.75926C28.6613 7.28463 28.0653 7.12114 27.7173 7.46921L23.7936 11.3929L20.2128 10.7969L19.6168 7.21607L23.5405 3.29243C23.8886 2.94436 23.7198 2.34843 23.2399 2.22714C20.7402 1.61011 17.9873 2.2746 16.036 4.22587C14.533 5.72888 13.8263 7.7118 13.8632 9.68944L18.1929 14.0192C18.6201 13.919 19.0631 13.8662 19.4956 13.8662ZM14.0162 18.1907L11.026 15.2005L2.98882 23.2429C1.67039 24.5613 1.67039 26.6972 2.98882 28.0156C4.30725 29.334 6.44311 29.334 7.76153 28.0156L14.2798 21.4973C13.879 20.4478 13.7578 19.3034 14.0162 18.1907ZM5.37782 26.8923C4.68168 26.8923 4.11212 26.3227 4.11212 25.6266C4.11212 24.9252 4.67641 24.3609 5.37782 24.3609C6.07922 24.3609 6.64351 24.9252 6.64351 25.6266C6.64351 26.3227 6.07922 26.8923 5.37782 26.8923Z" fill="#1C2CBC"/>
<path d="M28.4293 22.8681L22.2538 16.6926C21.0355 15.4743 19.2161 15.237 17.75 15.9595L12.1282 10.3377V7.06277L5.37786 2L2.00269 5.37518L7.06545 12.1255H10.3404L15.9622 17.7473C15.245 19.2134 15.477 21.0328 16.6953 22.2511L22.8708 28.4266C23.6407 29.1966 24.8853 29.1966 25.65 28.4266L28.4293 25.6473C29.194 24.8774 29.194 23.6328 28.4293 22.8681Z" fill="#1C2CBC"/>
</svg>
