<svg width="32" height="32" viewBox="0 0 32 32" fill="none" xmlns="http://www.w3.org/2000/svg">
<g clip-path="url(#clip0_48_1958)">
<path opacity="0.5" d="M3.28009 3.55483C3.79743 3.02549 4.46143 2.66149 5.18676 2.51483C5.90497 2.34351 6.6583 2.39466 7.34676 2.66149L27.1601 9.52816C27.722 9.70748 28.2306 10.0236 28.6401 10.4482C28.8208 10.6173 28.9778 10.8102 29.1068 11.0215C29.4552 11.5414 29.6726 12.1379 29.7406 12.76C29.8086 13.3821 29.725 14.0115 29.4971 14.5944C29.2692 15.1772 28.9037 15.6963 28.4317 16.1074C27.9598 16.5184 27.3954 16.8091 26.7868 16.9548L19.0401 18.2215C18.7846 18.3242 18.5531 18.4785 18.3601 18.6748C18.1456 18.8816 17.9853 19.138 17.8934 19.4215L16.6534 26.6615C16.4493 27.4824 15.9808 28.2133 15.3201 28.7415C14.6792 29.2481 13.896 29.5417 13.0801 29.5815C12.2674 29.6147 11.4649 29.3907 10.7868 28.9415C10.1033 28.4846 9.57717 27.8281 9.2801 27.0615L2.40009 7.60816C2.15638 6.91903 2.11019 6.17549 2.26676 5.46149C2.41522 4.7421 2.76691 4.08038 3.28009 3.55483Z" fill="#FFFAFA"/>
<path d="M3.28009 3.55483C5.74257 5.99506 17.8934 19.4215 17.8934 19.4215L16.6534 26.6615C16.4493 27.4824 15.9808 28.2133 15.3201 28.7415C14.6792 29.2481 13.896 29.5417 13.0801 29.5815C12.2674 29.6147 11.4649 29.3907 10.7868 28.9415C10.1033 28.4846 9.57717 27.8281 9.2801 27.0615L2.40009 7.60816C2.15638 6.91903 2.11019 6.17549 2.26676 5.46149C2.41522 4.7421 3.28009 3.55483 3.28009 3.55483Z" fill="#FFFAFA"/>
</g>
<defs>
<clipPath id="clip0_48_1958">
<rect width="32" height="32" fill="white" transform="translate(0 32) rotate(-90)"/>
</clipPath>
</defs>
</svg>
